<?xml version="1.0" encoding="utf-8"?>
<!-- Generator: Adobe Illustrator 23.0.0, SVG Export Plug-In . SVG Version: 6.00 Build 0)  -->
<svg version="1.1" id="Capa_1" xmlns="http://www.w3.org/2000/svg" xmlns:xlink="http://www.w3.org/1999/xlink" x="0px" y="0px"
	 viewBox="0 0 300 300" style="enable-background:new 0 0 300 300;" xml:space="preserve">
<style type="text/css">
	.st0{fill:#A3D783;}
	.st1{fill:#E8EACE;}
	.st2{fill:none;stroke:#8AB76F;stroke-miterlimit:10;}
	.st3{enable-background:new    ;}
	.st4{fill:#FFFFFF;}
</style>
<g>
	<g>
		<polygon class="st0" points="180.6,300 129.8,192.6 201.1,158.8 251.9,266.3 208,265.8 		"/>
		<polygon class="st0" points="135.4,299.3 185.9,192.6 115,159.1 64.5,265.8 108.1,265.4 		"/>
		<path class="st0" d="M148.8,5.1c2.8,0,7-5.2,9.8-5c2.7,0.2,6.3,5.9,9,6.4c2.7,0.4,7.8-4,10.5-3.4s5.2,6.9,7.8,7.8
			s8.4-2.7,10.9-1.6s4,7.7,6.4,8.9c2.4,1.3,8.7-1.3,11,0.2s2.7,8.2,4.9,9.9s8.8,0.2,10.8,2s1.3,8.5,3.2,10.5s8.6,1.6,10.3,3.8
			s-0.1,8.6,1.4,10.9c1.5,2.3,8.2,3,9.6,5.4c1.3,2.4-1.5,8.5-0.4,11s7.6,4.3,8.6,6.9c0.9,2.6-2.9,8.1-2.2,10.8
			c0.7,2.7,6.8,5.5,7.3,8.3c0.5,2.7-4.2,7.5-4,10.3c0.3,2.7,5.8,6.6,5.8,9.3c0,2.8-5.4,6.7-5.6,9.5c-0.2,2.7,4.6,7.5,4.2,10.2
			s-6.4,5.8-7.1,8.4c-0.6,2.7,3.4,8.1,2.5,10.7c-0.9,2.6-7.3,4.6-8.4,7.2c-1.1,2.5,2,8.6,0.7,11s-8,3.3-9.4,5.7
			c-1.5,2.3,0.5,8.8-1.1,11c-1.7,2.2-8.4,2-10.2,4s-0.9,8.7-2.9,10.6c-2,1.9-8.6,0.6-10.8,2.3c-2.1,1.7-2.3,8.5-4.6,10
			s-8.6-0.8-11,0.5s-3.7,8-6.2,9.1s-8.3-2.2-10.9-1.3c-2.6,0.9-5,7.2-7.6,8c-2.7,0.7-7.9-3.6-10.6-3.1c-2.7,0.5-6.1,6.3-8.8,6.6
			s-7.2-4.8-9.9-4.8c-2.8,0-7,5.2-9.8,5.1c-2.7-0.2-6.3-5.9-9-6.4c-2.7-0.4-7.8,4-10.5,3.4s-5.2-6.9-7.8-7.8
			c-2.6-0.9-8.4,2.7-10.9,1.6c-2.5-1.1-4-7.7-6.4-8.9c-2.4-1.3-8.7,1.3-11-0.2s-2.7-8.2-4.9-9.9c-2.2-1.7-8.8-0.2-10.8-2
			s-1.3-8.5-3.2-10.5c-1.9-2-8.6-1.6-10.3-3.8s0.1-8.6-1.4-10.9c-1.5-2.3-8.2-3-9.6-5.4c-1.3-2.4,1.5-8.5,0.4-11s-7.6-4.3-8.6-6.9
			c-0.9-2.6,2.9-8.1,2.2-10.8s-6.8-5.5-7.3-8.3c-0.5-2.7,4.2-7.5,4-10.3c-0.3-2.7-5.8-6.6-5.8-9.3c0-2.8,5.4-6.7,5.6-9.5
			c0.2-2.7-4.6-7.5-4.2-10.2c0.4-2.7,6.4-5.8,7.1-8.4c0.6-2.7-3.4-8.1-2.5-10.7s7.3-4.6,8.4-7.2c1.1-2.5-2-8.6-0.7-11s8-3.4,9.4-5.7
			c1.5-2.3-0.5-8.8,1.1-11c1.7-2.2,8.4-2,10.2-4c1.8-2.1,0.9-8.7,2.9-10.6c2-1.9,8.6-0.6,10.8-2.3c2.1-1.7,2.3-8.5,4.6-10
			c2.3-1.5,8.6,0.8,11-0.5s3.7-8,6.2-9.1s8.3,2.2,10.9,1.3s5-7.2,7.6-8c2.7-0.7,7.9,3.6,10.6,3.1c2.7-0.5,6.1-6.3,8.8-6.6
			C141.6,0,146,5.1,148.8,5.1z"/>
		<path class="st1" d="M247.4,119.1c0,53.7-43.5,97.2-97.2,97.2S53,172.8,53,119.1s43.5-97.2,97.2-97.2
			C203.9,21.9,247.4,65.4,247.4,119.1z"/>
		<path class="st0" d="M240.8,119.1c0,50-40.5,90.5-90.5,90.5s-90.5-40.5-90.5-90.5s40.5-90.5,90.5-90.5
			C200.2,28.5,240.8,69.1,240.8,119.1z"/>
		<path class="st2" d="M252.9,119.1c0,56.7-46,102.7-102.7,102.7s-102.6-46-102.6-102.7s46-102.7,102.6-102.7
			C206.9,16.4,252.9,62.4,252.9,119.1z"/>
		<g>
			<rect x="167.9" y="177.9" class="st1" width="31.3" height="1"/>
		</g>
		<g>
			<rect x="102.3" y="57.1" class="st1" width="96" height="1"/>
		</g>
		<g>
			<rect x="101.3" y="177.9" class="st1" width="31.3" height="1"/>
		</g>
		<g>
			<path class="st1" d="M154.8,178.4c0,2.4-2,4.4-4.4,4.4s-4.4-2-4.4-4.4s2-4.4,4.4-4.4S154.8,176,154.8,178.4z"/>
			<path class="st1" d="M164.5,178.3c0,1.7-1.3,3-3,3s-3-1.3-3-3s1.3-3,3-3C163.1,175.3,164.5,176.6,164.5,178.3z"/>
			<path class="st1" d="M142.3,178.3c0,1.7-1.3,3-3,3s-3-1.3-3-3s1.3-3,3-3C140.9,175.3,142.3,176.6,142.3,178.3z"/>
		</g>
	</g>
	<g>
		<g class="st3">
			<path class="st4" d="M116.1,115.6L116.1,115.6c0-10.1,7.9-17.6,18.5-17.6c5.8,0,10.4,1.9,14.1,5.1l-6.3,7.6
				c-2.2-1.9-4.7-2.9-7.4-2.9c-4.4,0-7.5,3.4-7.5,7.9v0.1c0,4.8,3.3,8,8,8c1.9,0,3-0.3,3.8-0.8v-3.4h-5.8v-7.2h16.3V128
				c-3.6,3-8.7,5-14.8,5C124.5,133,116.1,126,116.1,115.6z"/>
			<path class="st4" d="M153,98.7h18.8c4.7,0,7.6,1.1,9.6,3c1.2,1.2,2.1,2.9,2.1,5.2v0.1c0,4-2.4,6.4-6,7.7c4.3,1.2,7.1,3.6,7.1,8.2
				v0.1c0,5.4-4.4,9.3-12.9,9.3H153V98.7z M168.9,111.9c2.4,0,3.6-0.8,3.6-2.3v-0.1c0-1.5-1.2-2.3-3.6-2.3H164v4.7H168.9z
				 M169.6,123.8c2.4,0,3.7-1,3.7-2.4v-0.1c0-1.4-1.2-2.4-3.6-2.4H164v5H169.6z"/>
		</g>
	</g>
</g>
</svg>
