<svg width="158" height="34" viewBox="0 0 158 34" fill="none" xmlns="http://www.w3.org/2000/svg">
<g filter="url(#filter0_d_25_60)">
<path d="M31.41 0L30.3136 4.30439H22.1109L16.7101 25.9887H6.80191L12.2027 4.30439H4L5.0964 0H31.41Z" fill="#FF6500"/>
<path d="M62.475 0L57.8864 18.2733C57.1825 21.0617 56.1673 23.0515 54.8408 24.2426C53.5414 25.4067 51.6599 25.9887 49.1964 25.9887H35.1462C31.6269 25.9887 29.8672 24.3915 29.8672 21.1971C29.8672 20.3308 30.0026 19.3562 30.2733 18.2733L34.862 0H44.7702L39.9379 19.3291C39.8567 19.654 39.8161 19.9518 39.8161 20.2225C39.8161 21.1971 40.4252 21.6844 41.6434 21.6844H50.4146C51.308 21.6844 51.9441 21.549 52.3231 21.2783C52.7292 21.0076 53.0405 20.4391 53.2571 19.5728L58.1706 0H62.475Z" fill="#FF6500"/>
<path d="M96.7899 0L80.2626 25.9887H69.1768L66.2125 0H76.7704L79.0444 20.4661L92.0388 0H96.7899Z" fill="#FF6500"/>
<path d="M124.426 0L123.33 4.30439H109.645C108.508 4.30439 107.845 4.65632 107.655 5.36018L107.209 7.02508C107.181 7.16044 107.168 7.26873 107.168 7.34994C107.168 7.81016 107.682 8.04027 108.711 8.04027H116.102C119.621 8.04027 121.381 9.21789 121.381 11.5731C121.381 12.0333 121.313 12.5206 121.177 13.035L119.472 19.857C118.443 23.9448 115.98 25.9887 112.081 25.9887H92.9147L93.9705 21.6844H107.858C108.887 21.6844 109.496 21.3054 109.686 20.5474L110.132 18.7606C110.186 18.5982 110.213 18.4493 110.213 18.3139C110.213 17.8537 109.726 17.6236 108.752 17.6236H100.265C97.4492 17.6236 96.0415 16.5949 96.0415 14.5375C96.0415 13.8877 96.1498 13.1027 96.3663 12.1822L97.9094 5.96929C98.3426 4.23671 99.1141 2.84252 100.224 1.78673C101.442 0.595576 102.931 0 104.691 0H124.426Z" fill="#FF6500"/>
<path d="M154 25.9887H143.483L142.264 19.0043H130.854L125.697 25.9887H120.905L139.828 0H149.736L154 25.9887ZM141.615 14.6999L140.112 5.92868L133.94 14.6999H141.615Z" fill="#FF6500"/>
</g>
<defs>
<filter id="filter0_d_25_60" x="0" y="0" width="158" height="33.9888" filterUnits="userSpaceOnUse" color-interpolation-filters="sRGB">
<feFlood flood-opacity="0" result="BackgroundImageFix"/>
<feColorMatrix in="SourceAlpha" type="matrix" values="0 0 0 0 0 0 0 0 0 0 0 0 0 0 0 0 0 0 127 0" result="hardAlpha"/>
<feOffset dy="4"/>
<feGaussianBlur stdDeviation="2"/>
<feComposite in2="hardAlpha" operator="out"/>
<feColorMatrix type="matrix" values="0 0 0 0 0 0 0 0 0 0 0 0 0 0 0 0 0 0 0.25 0"/>
<feBlend mode="normal" in2="BackgroundImageFix" result="effect1_dropShadow_25_60"/>
<feBlend mode="normal" in="SourceGraphic" in2="effect1_dropShadow_25_60" result="shape"/>
</filter>
</defs>
</svg>
