<?xml version="1.0" encoding="utf-8"?>
<!-- Generator: Adobe Illustrator 17.0.0, SVG Export Plug-In . SVG Version: 6.00 Build 0)  -->
<!DOCTYPE svg PUBLIC "-//W3C//DTD SVG 1.1//EN" "http://www.w3.org/Graphics/SVG/1.1/DTD/svg11.dtd">
<svg version="1.1" id="Capa_1" xmlns="http://www.w3.org/2000/svg" xmlns:xlink="http://www.w3.org/1999/xlink" x="0px" y="0px"
	 width="300px" height="300px" viewBox="0 0 300 300" enable-background="new 0 0 300 300" xml:space="preserve">
<g>
	<rect x="0.492" y="26.404" fill="none" width="300" height="247.618"/>
	<g>
		<g>
			<g>
				<defs>
					<path id="SVGID_1_" d="M209.121,124.086c0,32.38-26.249,58.629-58.629,58.629c-32.519,0-58.629-27.016-58.629-58.629
						c0-32.38,26.249-58.629,58.629-58.629S209.121,91.707,209.121,124.086z"/>
				</defs>
				<clipPath id="SVGID_2_">
					<use xlink:href="#SVGID_1_"  overflow="visible"/>
				</clipPath>
				<g clip-path="url(#SVGID_2_)">
					<path fill="#A3D783" d="M138.18,149.7c3.766,5.027,5.324,9.832,5.672,11.021c2.718-3.643,5.731-6.335,8.819-8.312
						C148.708,150.707,143.788,149.432,138.18,149.7z"/>
					<path fill="#A3D783" d="M115.512,170.178c-2.435-1.359-4.621-2.987-6.583-4.776c-0.016,0.017-0.033,0.034-0.049,0.051
						c0,0,11.416,12.018,26.256,15.233c0.694-2.942,1.507-5.633,2.418-8.091C127.257,176.608,115.512,170.178,115.512,170.178z"/>
					<path fill="#A3D783" d="M186.03,159.23c-1.504,11.099-13.158,18.186-13.158,18.186c-2.309,1.447-4.777,2.533-7.302,3.335
						c0.005,0.017,0.009,0.034,0.015,0.052c0,0,16.091-3.753,26.405-15.244C189.716,163.422,187.742,161.31,186.03,159.23z"/>
					<path fill="#A3D783" d="M166.603,147.532c6.905-0.803,12.191,0.592,12.517,0.68c-1.843-4.214-2.694-8.207-2.875-11.902
						C172.774,138.89,169.189,142.523,166.603,147.532z"/>
					<path fill="#A3D783" d="M207.019,108.271c0.077,0.289,0.114,0.447,0.114,0.447c-2.945,0.887-5.725,1.536-8.349,1.979
						c8.903,6.841,9.214,20.522,9.214,20.522c0.04,2.736-0.271,5.392-0.819,7.941c0.011,0.003,0.021,0.005,0.032,0.008
						C207.211,139.168,212.015,123.158,207.019,108.271z"/>
					<path fill="#A3D783" d="M178.966,121.746c2.747-6.379,6.594-10.269,6.862-10.536c-4.595-0.494-8.499-1.744-11.808-3.429
						C174.53,112.084,175.899,117.006,178.966,121.746z"/>
					<path fill="#A3D783" d="M134.24,100.509c-6.11,0.754-10.998-0.226-12.388-0.555c1.827,4.174,2.68,8.131,2.874,11.797
						C128.17,109.15,131.701,105.509,134.24,100.509z"/>
					<path fill="#A3D783" d="M108.98,82.612c2.125,1.998,3.99,3.974,5.622,5.922c1.674-10.923,13.115-17.879,13.115-17.879
						c1.954-1.166,3.981-2.099,6.035-2.841c-4.228,1.243-17.045,5.663-25.602,15.631C108.67,82.906,108.98,82.612,108.98,82.612z"/>
					<path fill="#A3D783" d="M115.418,136.693c4.505,0.526,8.331,1.785,11.584,3.46c-0.516-4.28-1.882-9.167-4.923-13.877
						C119.677,131.927,116.393,135.658,115.418,136.693z"/>
					<path fill="#A3D783" d="M92.979,116.962c-0.041-2.804,0.285-5.524,0.859-8.131c-0.007-0.002-0.013-0.003-0.019-0.005
						c0,0-4.677,15.588-0.001,30.305c2.826-0.849,5.5-1.479,8.03-1.918C93.28,130.289,92.979,116.962,92.979,116.962z"/>
					<path fill="#A3D783" d="M162.739,98.189c-3.97-5.29-5.495-10.34-5.736-11.199c-2.727,3.745-5.763,6.51-8.88,8.54
						C152.121,97.235,157.085,98.498,162.739,98.189z"/>
					<path fill="#A3D783" d="M163.07,75.379c10.362-4.238,22.317,2.307,22.317,2.307c1.988,1.11,3.81,2.4,5.481,3.809
						c-3.093-2.963-13.422-12.014-26.484-14.446c0.698,0.175,1.081,0.289,1.081,0.289C164.777,70.261,163.972,72.933,163.07,75.379z
						"/>
					<path fill="#99DAEA" d="M114.978,159.684c-10.902-1.694-17.843-13.11-17.843-13.11c-1.432-2.399-2.513-4.908-3.318-7.443
						c-0.018,0.005-0.034,0.01-0.052,0.015c0,0,3.746,15.85,15.164,26.257C110.97,163.235,112.989,161.338,114.978,159.684z"/>
					<path opacity="0.7" fill="#83BC39" d="M137.554,172.596c1.775-4.787,3.924-8.693,6.298-11.875
						c-0.348-1.189-1.905-5.994-5.672-11.021c-3.653,0.175-7.597,1.002-11.759,2.796c-3.663,1.579-7.495,3.904-11.443,7.188
						c-1.989,1.654-4.008,3.551-6.049,5.718c1.962,1.788,4.148,3.417,6.583,4.776C115.512,170.178,127.257,176.608,137.554,172.596z
						"/>
					<path opacity="0.7" fill="#83BC39" d="M114.978,159.684c3.949-3.284,7.78-5.609,11.443-7.188
						c0.312-1.298,1.323-6.192,0.581-12.343c-3.253-1.675-7.08-2.934-11.584-3.46c-3.98-0.465-8.483-0.361-13.571,0.52
						c-2.53,0.438-5.204,1.069-8.03,1.918c0.805,2.535,1.886,5.044,3.318,7.443C97.135,146.574,104.076,157.99,114.978,159.684z"/>
					<path fill="#99DAEA" d="M143.229,181.455c-2.775,0.092-5.486-0.204-8.093-0.768c-0.004,0.016-0.008,0.031-0.012,0.047
						c0,0,16.159,4.56,30.446,0.018c-0.881-2.935-1.528-5.705-1.968-8.32C156.714,181.148,143.229,181.455,143.229,181.455z"/>
					<path opacity="0.7" fill="#83BC39" d="M143.229,181.455c0,0,13.485-0.307,20.373-9.023c-0.834-4.959-0.926-9.358-0.474-13.255
						c-0.713-0.693-4.505-4.211-10.457-6.767c-3.088,1.977-6.102,4.668-8.819,8.312c-2.374,3.183-4.523,7.088-6.298,11.875
						c-0.911,2.458-1.724,5.148-2.418,8.091C137.743,181.251,140.454,181.546,143.229,181.455z"/>
					<path opacity="0.7" fill="#83BC39" d="M186.03,159.23c-3.124-3.797-5.366-7.485-6.911-11.018
						c-0.326-0.089-5.612-1.483-12.517-0.68c-1.686,3.266-2.949,7.115-3.474,11.644c-0.452,3.898-0.36,8.296,0.474,13.255
						c0.44,2.615,1.086,5.385,1.968,8.32c2.526-0.803,4.993-1.888,7.302-3.335C172.872,177.416,184.526,170.329,186.03,159.23z"/>
					<path fill="#99DAEA" d="M196.616,159.057c-1.307,2.402-2.885,4.562-4.628,6.503c0.003,0.003,0.006,0.005,0.009,0.008
						c0,0,11.923-11.244,15.182-26.408c-3.02-0.712-5.773-1.55-8.284-2.49C203.191,147.048,196.616,159.057,196.616,159.057z"/>
					<path opacity="0.7" fill="#83BC39" d="M198.896,136.671c-4.554-1.705-8.307-3.749-11.392-6.004
						c-0.021-0.01-0.041-0.019-0.062-0.029c0,0-5.437,1.39-11.197,5.673c0.182,3.696,1.033,7.688,2.875,11.902
						c1.545,3.533,3.786,7.22,6.911,11.018c1.711,2.08,3.686,4.192,5.959,6.33c1.742-1.941,3.321-4.101,4.628-6.503
						C196.616,159.057,203.191,147.048,198.896,136.671z"/>
					<path opacity="0.7" fill="#83BC39" d="M198.785,110.696c-4.833,0.815-9.134,0.925-12.958,0.514
						c-0.268,0.267-4.114,4.157-6.862,10.536c2.025,3.13,4.789,6.18,8.538,8.92c3.086,2.255,6.839,4.299,11.392,6.004
						c2.51,0.94,5.263,1.777,8.284,2.49c0.548-2.549,0.859-5.205,0.819-7.941C207.999,131.219,207.688,117.537,198.785,110.696z"/>
					<path fill="#99DAEA" d="M191.827,82.447c-2.075,2.207-4.127,4.134-6.147,5.811c11.116,1.488,18.214,13.162,18.214,13.162
						c1.321,2.212,2.342,4.518,3.125,6.851c-0.726-2.728-5.048-17.409-16.151-26.776C191.49,82.09,191.827,82.447,191.827,82.447z"
						/>
					<path opacity="0.7" fill="#83BC39" d="M185.68,88.258c-3.792,3.147-7.476,5.41-11.006,6.977
						c-0.179,0.683-1.449,5.867-0.655,12.547c3.309,1.685,7.213,2.934,11.808,3.429c3.824,0.411,8.125,0.301,12.958-0.514
						c2.624-0.442,5.403-1.092,8.349-1.979c0,0-0.038-0.158-0.114-0.447c-0.783-2.333-1.804-4.639-3.125-6.851
						C203.894,101.42,196.796,89.746,185.68,88.258z"/>
					<path opacity="0.7" fill="#83BC39" d="M163.07,75.379c-1.715,4.651-3.782,8.474-6.067,11.612
						c0.24,0.859,1.766,5.909,5.736,11.199c3.707-0.202,7.711-1.078,11.935-2.954c3.53-1.568,7.214-3.831,11.006-6.977
						c2.021-1.677,4.072-3.604,6.147-5.811c0,0-0.338-0.357-0.959-0.952c-1.67-1.409-3.493-2.699-5.481-3.809
						C185.387,77.686,173.431,71.141,163.07,75.379z"/>
					<path fill="#99DAEA" d="M104.13,89.176c1.165-2.087,2.527-3.993,4.019-5.731c-2.74,2.837-11.524,12.724-14.312,25.386
						c2.848,0.671,5.457,1.453,7.851,2.328C97.724,100.876,104.13,89.176,104.13,89.176z"/>
					<path opacity="0.7" fill="#83BC39" d="M101.688,111.159c4.855,1.774,8.815,3.93,12.037,6.316c1.401-0.422,6.108-2.028,11-5.723
						c-0.194-3.666-1.047-7.623-2.874-11.797c-1.601-3.657-3.948-7.481-7.25-11.42c-1.633-1.948-3.497-3.924-5.622-5.922
						c0,0-0.31,0.294-0.831,0.833c-1.492,1.738-2.854,3.643-4.019,5.731C104.13,89.176,97.724,100.876,101.688,111.159z"/>
					<path opacity="0.7" fill="#83BC39" d="M101.847,137.213c5.089-0.882,9.591-0.985,13.571-0.52
						c0.975-1.035,4.259-4.766,6.662-10.417c-1.99-3.083-4.696-6.091-8.354-8.8c-3.222-2.387-7.182-4.542-12.037-6.316
						c-2.394-0.875-5.003-1.657-7.851-2.328c-0.574,2.606-0.9,5.327-0.859,8.131C92.979,116.962,93.28,130.289,101.847,137.213z"/>
					<path fill="#99DAEA" d="M137.09,75.487c6.884-8.734,20.388-9.042,20.388-9.042c2.367-0.035,4.676,0.188,6.906,0.603
						c-3.912-0.98-17.807-3.866-30.632,0.766c0.898-0.264,1.41-0.385,1.41-0.385C136.017,70.266,136.65,72.949,137.09,75.487z"/>
					<path opacity="0.7" fill="#83BC39" d="M114.602,88.535c3.302,3.939,5.649,7.763,7.25,11.42
						c1.39,0.328,6.278,1.309,12.388,0.555c1.67-3.289,2.912-7.161,3.409-11.717c0.427-3.914,0.306-8.33-0.558-13.305
						c-0.441-2.538-1.074-5.221-1.928-8.058c0,0-0.512,0.121-1.41,0.385c-2.054,0.742-4.081,1.674-6.035,2.841
						C127.717,70.655,116.276,77.611,114.602,88.535z"/>
					<path opacity="0.7" fill="#83BC39" d="M137.09,75.487c0.864,4.975,0.985,9.391,0.558,13.305
						c0.872,0.836,4.648,4.254,10.475,6.738c3.117-2.03,6.153-4.795,8.88-8.54c2.284-3.137,4.351-6.961,6.067-11.612
						c0.902-2.445,1.707-5.117,2.395-8.041c0,0-0.383-0.115-1.081-0.289c-2.23-0.415-4.54-0.638-6.906-0.603
						C157.478,66.446,143.974,66.753,137.09,75.487z"/>
					<path fill="#34D9C3" d="M207.999,131.219c0,0-0.311-13.681-9.214-20.522c2.624-0.442,5.403-1.092,8.349-1.979
						c0,0-0.038-0.158-0.114-0.447c-0.783-2.333-1.804-4.639-3.125-6.851c0,0-7.099-11.674-18.214-13.162
						c2.021-1.677,4.072-3.604,6.147-5.811c0,0-0.338-0.357-0.959-0.952c-1.67-1.409-3.493-2.699-5.481-3.809
						c0,0-11.956-6.545-22.317-2.307c0.902-2.445,1.707-5.117,2.395-8.041c0,0-0.383-0.115-1.081-0.289
						c-2.23-0.415-4.54-0.638-6.906-0.603c0,0-13.504,0.307-20.388,9.042c-0.441-2.538-1.074-5.221-1.928-8.058
						c0,0-0.512,0.121-1.41,0.385c-2.054,0.742-4.081,1.674-6.035,2.841c0,0-11.441,6.956-13.115,17.879
						c-1.633-1.948-3.497-3.924-5.622-5.922c0,0-0.31,0.294-0.831,0.833c-1.492,1.738-2.854,3.643-4.019,5.731
						c0,0-6.407,11.7-2.442,21.983c-2.394-0.875-5.003-1.657-7.851-2.328c-0.574,2.606-0.9,5.327-0.859,8.131
						c0,0,0.302,13.327,8.868,20.252c-2.53,0.438-5.204,1.069-8.03,1.918c0.805,2.535,1.886,5.044,3.318,7.443
						c0,0,6.94,11.416,17.843,13.11c-1.989,1.654-4.008,3.551-6.049,5.718c1.962,1.788,4.148,3.417,6.583,4.776
						c0,0,11.745,6.431,22.042,2.418c-0.911,2.458-1.724,5.148-2.418,8.091c2.607,0.565,5.318,0.86,8.093,0.768
						c0,0,13.485-0.307,20.373-9.023c0.44,2.615,1.086,5.385,1.968,8.32c2.526-0.803,4.993-1.888,7.302-3.335
						c0,0,11.655-7.087,13.158-18.186c1.711,2.08,3.686,4.192,5.959,6.33c1.742-1.941,3.321-4.101,4.628-6.503
						c0,0,6.574-12.009,2.279-22.386c2.51,0.94,5.263,1.777,8.284,2.49C207.727,136.611,208.039,133.955,207.999,131.219z
						 M187.441,130.638c0,0-5.437,1.39-11.197,5.673c0.182,3.696,1.033,7.688,2.875,11.902c-0.326-0.089-5.612-1.483-12.517-0.68
						c-1.686,3.266-2.949,7.115-3.474,11.644c-0.713-0.693-4.505-4.211-10.457-6.767c-3.088,1.977-6.102,4.668-8.819,8.312
						c-0.348-1.189-1.905-5.994-5.672-11.021c-3.653,0.175-7.597,1.002-11.759,2.796c0.312-1.298,1.323-6.192,0.581-12.343
						c-3.253-1.675-7.08-2.934-11.584-3.46c0.975-1.035,4.259-4.766,6.662-10.417c-1.99-3.083-4.696-6.091-8.354-8.8
						c1.401-0.422,6.108-2.028,11-5.723c-0.194-3.666-1.047-7.623-2.874-11.797c1.39,0.328,6.278,1.309,12.388,0.555
						c1.67-3.289,2.912-7.161,3.409-11.717c0.872,0.836,4.648,4.254,10.475,6.738c3.117-2.03,6.153-4.795,8.88-8.54
						c0.24,0.859,1.766,5.909,5.736,11.199c3.707-0.202,7.711-1.078,11.935-2.954c-0.179,0.683-1.449,5.867-0.655,12.547
						c3.309,1.685,7.213,2.934,11.808,3.429c-0.268,0.267-4.114,4.157-6.862,10.536c2.025,3.13,4.789,6.18,8.538,8.92
						C187.483,130.657,187.462,130.647,187.441,130.638z"/>
					<path fill="none" d="M162.739,98.189c-5.654,0.308-10.618-0.954-14.615-2.659c-4.706,3.065-9.595,4.45-13.884,4.979
						c-2.539,5-6.07,8.64-9.514,11.242c0.297,5.614-0.955,10.545-2.646,14.524c3.04,4.71,4.407,9.598,4.923,13.877
						c4.974,2.561,8.598,6.103,11.178,9.547c5.608-0.268,10.528,1.007,14.491,2.709c4.736-3.032,9.645-4.378,13.932-4.877
						c2.586-5.009,6.172-8.642,9.642-11.222c-0.277-5.641,1.008-10.586,2.721-14.564c-3.067-4.74-4.435-9.662-4.947-13.964
						C168.991,105.222,165.34,101.655,162.739,98.189z"/>
					<path fill="#99DAEA" d="M127.002,140.153c0.741,6.151-0.27,11.045-0.581,12.343c4.162-1.794,8.106-2.622,11.759-2.796
						C135.6,146.256,131.976,142.714,127.002,140.153z"/>
					<path fill="#99DAEA" d="M163.128,159.176c0.526-4.529,1.788-8.378,3.474-11.644c-4.287,0.498-9.196,1.845-13.932,4.877
						C158.623,154.966,162.415,158.484,163.128,159.176z"/>
					<path fill="#99DAEA" d="M176.244,136.31c5.76-4.283,11.197-5.673,11.197-5.673c0.021,0.009,0.041,0.019,0.062,0.029
						c-3.749-2.74-6.513-5.79-8.538-8.92C177.252,125.724,175.967,130.67,176.244,136.31z"/>
					<path fill="#99DAEA" d="M174.019,107.782c-0.794-6.68,0.476-11.864,0.655-12.547c-4.224,1.876-8.228,2.752-11.935,2.954
						C165.34,101.655,168.991,105.222,174.019,107.782z"/>
					<path fill="#99DAEA" d="M124.726,111.752c-4.892,3.696-9.599,5.301-11,5.723c3.658,2.71,6.364,5.717,8.354,8.8
						C123.771,122.297,125.023,117.366,124.726,111.752z"/>
					<path fill="#99DAEA" d="M137.649,88.792c-0.497,4.556-1.739,8.428-3.409,11.717c4.288-0.529,9.178-1.914,13.884-4.979
						C142.296,93.045,138.521,89.628,137.649,88.792z"/>
				</g>
			</g>
		</g>
		<g>
			<g>
				<path fill="#646569" d="M42.987,234.778c-0.207,0.107-0.64,0.213-1.187,0.213c-1.267,0-2.214-0.8-2.214-2.274
					c0-1.407,0.954-2.354,2.348-2.354c0.554,0,0.914,0.12,1.067,0.193l-0.147,0.48c-0.213-0.107-0.527-0.187-0.9-0.187
					c-1.054,0-1.754,0.674-1.754,1.847c0,1.1,0.634,1.801,1.721,1.801c0.36,0,0.72-0.073,0.954-0.187L42.987,234.778z"/>
				<path fill="#646569" d="M45.455,234.998c-1.194,0-2.021-0.92-2.021-2.281c0-1.427,0.88-2.361,2.081-2.361
					c1.234,0,2.027,0.94,2.027,2.274c0,1.541-0.94,2.367-2.081,2.367H45.455z M45.488,234.524c0.92,0,1.441-0.847,1.441-1.867
					c0-0.894-0.467-1.827-1.434-1.827c-0.967,0-1.447,0.9-1.447,1.874c0,0.947,0.52,1.821,1.434,1.821H45.488z"/>
				<path fill="#646569" d="M48.416,234.924v-4.495h0.64l1.434,2.274c0.327,0.527,0.594,1,0.8,1.46l0.02-0.007
					c-0.053-0.6-0.067-1.147-0.067-1.841v-1.887h0.547v4.495h-0.587l-1.427-2.281c-0.314-0.5-0.614-1.014-0.834-1.501l-0.02,0.007
					c0.033,0.567,0.04,1.107,0.04,1.854v1.921H48.416z"/>
				<path fill="#646569" d="M52.851,234.218c0.26,0.16,0.634,0.287,1.034,0.287c0.594,0,0.94-0.307,0.94-0.76
					c0-0.42-0.24-0.667-0.847-0.894c-0.734-0.253-1.187-0.64-1.187-1.267c0-0.7,0.58-1.22,1.454-1.22
					c0.453,0,0.794,0.107,0.987,0.213l-0.16,0.48c-0.14-0.087-0.44-0.213-0.847-0.213c-0.613,0-0.847,0.367-0.847,0.674
					c0,0.413,0.274,0.62,0.894,0.86c0.76,0.3,1.14,0.66,1.14,1.32c0,0.687-0.507,1.294-1.567,1.294
					c-0.433,0-0.907-0.133-1.147-0.293L52.851,234.218z"/>
				<path fill="#646569" d="M56.912,230.429v2.668c0,1,0.447,1.427,1.047,1.427c0.66,0,1.094-0.44,1.094-1.427v-2.668h0.587v2.628
					c0,1.381-0.727,1.941-1.701,1.941c-0.92,0-1.614-0.52-1.614-1.921v-2.648H56.912z"/>
				<path fill="#646569" d="M60.76,230.429h0.587v4.008h1.921v0.487H60.76V230.429z"/>
				<path fill="#646569" d="M64.301,230.923h-1.367v-0.493h3.328v0.493h-1.374v4.001h-0.587V230.923z"/>
				<path fill="#646569" d="M68.456,234.998c-1.194,0-2.021-0.92-2.021-2.281c0-1.427,0.88-2.361,2.081-2.361
					c1.234,0,2.027,0.94,2.027,2.274c0,1.541-0.94,2.367-2.081,2.367H68.456z M68.49,234.524c0.92,0,1.44-0.847,1.44-1.867
					c0-0.894-0.467-1.827-1.434-1.827c-0.967,0-1.447,0.9-1.447,1.874c0,0.947,0.52,1.821,1.434,1.821H68.49z"/>
				<path fill="#646569" d="M71.417,230.496c0.294-0.06,0.72-0.1,1.114-0.1c0.62,0,1.027,0.12,1.307,0.374
					c0.22,0.193,0.353,0.5,0.353,0.854c0,0.587-0.38,0.98-0.847,1.14v0.02c0.34,0.12,0.547,0.44,0.66,0.907
					c0.147,0.627,0.253,1.06,0.34,1.234h-0.6c-0.073-0.133-0.173-0.513-0.293-1.074c-0.133-0.62-0.38-0.854-0.907-0.874h-0.547
					v1.947h-0.58V230.496z M71.997,232.537h0.594c0.62,0,1.014-0.34,1.014-0.854c0-0.58-0.42-0.834-1.034-0.834
					c-0.28,0-0.473,0.027-0.574,0.053V232.537z"/>
				<path fill="#646569" d="M77.446,232.817h-1.741v1.621h1.947v0.487h-2.534v-4.495h2.434v0.487h-1.847v1.421h1.741V232.817z"/>
				<path fill="#646569" d="M78.453,234.218c0.26,0.16,0.634,0.287,1.034,0.287c0.594,0,0.94-0.307,0.94-0.76
					c0-0.42-0.24-0.667-0.847-0.894c-0.734-0.253-1.187-0.64-1.187-1.267c0-0.7,0.58-1.22,1.454-1.22
					c0.453,0,0.794,0.107,0.987,0.213l-0.16,0.48c-0.14-0.087-0.44-0.213-0.847-0.213c-0.613,0-0.847,0.367-0.847,0.674
					c0,0.413,0.274,0.62,0.894,0.86c0.76,0.3,1.14,0.66,1.14,1.32c0,0.687-0.507,1.294-1.567,1.294
					c-0.433,0-0.907-0.133-1.147-0.293L78.453,234.218z"/>
				<path fill="#646569" d="M85.789,232.817h-1.741v1.621h1.947v0.487h-2.534v-4.495h2.434v0.487h-1.847v1.421h1.741V232.817z"/>
				<path fill="#646569" d="M86.869,234.924v-4.495h0.64l1.434,2.274c0.327,0.527,0.594,1,0.8,1.46l0.02-0.007
					c-0.053-0.6-0.067-1.147-0.067-1.841v-1.887h0.547v4.495h-0.587l-1.427-2.281c-0.314-0.5-0.614-1.014-0.834-1.501l-0.02,0.007
					c0.033,0.567,0.04,1.107,0.04,1.854v1.921H86.869z"/>
				<path fill="#646569" d="M94.666,234.998c-1.194,0-2.021-0.92-2.021-2.281c0-1.427,0.88-2.361,2.081-2.361
					c1.234,0,2.027,0.94,2.027,2.274c0,1.541-0.94,2.367-2.081,2.367H94.666z M94.699,234.524c0.92,0,1.44-0.847,1.44-1.867
					c0-0.894-0.467-1.827-1.434-1.827c-0.967,0-1.447,0.9-1.447,1.874c0,0.947,0.52,1.821,1.434,1.821H94.699z"/>
				<path fill="#646569" d="M97.627,230.489c0.28-0.053,0.647-0.093,1.114-0.093c0.573,0,0.994,0.133,1.26,0.374
					c0.247,0.213,0.4,0.54,0.4,0.934c0,0.407-0.12,0.727-0.353,0.96c-0.307,0.327-0.807,0.494-1.374,0.494
					c-0.173,0-0.333-0.007-0.467-0.04v1.807h-0.58V230.489z M98.207,232.644c0.127,0.033,0.287,0.047,0.48,0.047
					c0.7,0,1.127-0.34,1.127-0.954c0-0.594-0.42-0.88-1.06-0.88c-0.254,0-0.447,0.02-0.547,0.047V232.644z"/>
				<path fill="#646569" d="M102.148,230.923h-1.367v-0.493h3.328v0.493h-1.374v4.001h-0.587V230.923z"/>
				<path fill="#646569" d="M105.309,230.429v4.495h-0.587v-4.495H105.309z"/>
				<path fill="#646569" d="M110.231,232.95c-0.033-0.62-0.073-1.387-0.073-1.941h-0.013c-0.16,0.52-0.34,1.094-0.567,1.707
					l-0.794,2.181h-0.44l-0.734-2.141c-0.213-0.634-0.387-1.214-0.514-1.747h-0.013c-0.013,0.56-0.047,1.314-0.087,1.987
					l-0.12,1.927h-0.553l0.313-4.495h0.74l0.767,2.174c0.187,0.554,0.334,1.054,0.453,1.521h0.013c0.12-0.453,0.28-0.954,0.48-1.521
					l0.8-2.174h0.74l0.28,4.495h-0.573L110.231,232.95z"/>
				<path fill="#646569" d="M112.505,230.429v4.495h-0.587v-4.495H112.505z"/>
				<path fill="#646569" d="M113.332,234.584l2.494-3.648v-0.02h-2.281v-0.487h3.034v0.354l-2.481,3.635v0.02h2.514v0.487h-3.281
					V234.584z"/>
				<path fill="#646569" d="M118.174,233.511l-0.467,1.414h-0.6l1.527-4.495h0.7l1.534,4.495h-0.62l-0.48-1.414H118.174z
					 M119.648,233.057l-0.447-1.294c-0.093-0.293-0.16-0.56-0.227-0.82h-0.02c-0.06,0.26-0.133,0.54-0.22,0.814l-0.44,1.3H119.648z"
					/>
				<path fill="#646569" d="M124.683,234.778c-0.207,0.107-0.64,0.213-1.187,0.213c-1.267,0-2.214-0.8-2.214-2.274
					c0-1.407,0.954-2.354,2.348-2.354c0.554,0,0.914,0.12,1.067,0.193l-0.147,0.48c-0.213-0.107-0.527-0.187-0.9-0.187
					c-1.054,0-1.754,0.674-1.754,1.847c0,1.1,0.634,1.801,1.721,1.801c0.36,0,0.72-0.073,0.954-0.187L124.683,234.778z"/>
				<path fill="#646569" d="M126.117,230.429v4.495h-0.587v-4.495H126.117z"/>
				<path fill="#646569" d="M129.005,234.998c-1.194,0-2.021-0.92-2.021-2.281c0-1.427,0.88-2.361,2.081-2.361
					c1.234,0,2.027,0.94,2.027,2.274c0,1.541-0.94,2.367-2.081,2.367H129.005z M129.038,234.524c0.92,0,1.441-0.847,1.441-1.867
					c0-0.894-0.467-1.827-1.434-1.827c-0.967,0-1.447,0.9-1.447,1.874c0,0.947,0.52,1.821,1.434,1.821H129.038z M130.018,229.389
					l-0.854,0.78h-0.473l0.62-0.78H130.018z"/>
				<path fill="#646569" d="M131.966,234.924v-4.495h0.64l1.434,2.274c0.327,0.527,0.594,1,0.8,1.46l0.02-0.007
					c-0.053-0.6-0.067-1.147-0.067-1.841v-1.887h0.547v4.495h-0.587l-1.427-2.281c-0.314-0.5-0.614-1.014-0.834-1.501l-0.02,0.007
					c0.033,0.567,0.04,1.107,0.04,1.854v1.921H131.966z"/>
				<path fill="#646569" d="M140.329,232.817h-1.741v1.621h1.947v0.487h-2.534v-4.495h2.434v0.487h-1.847v1.421h1.741V232.817z"/>
				<path fill="#646569" d="M145.197,232.95c-0.033-0.62-0.073-1.387-0.073-1.941h-0.013c-0.16,0.52-0.34,1.094-0.567,1.707
					l-0.794,2.181h-0.44l-0.734-2.141c-0.213-0.634-0.387-1.214-0.514-1.747h-0.013c-0.013,0.56-0.047,1.314-0.087,1.987
					l-0.12,1.927h-0.553l0.313-4.495h0.74l0.767,2.174c0.187,0.554,0.334,1.054,0.453,1.521h0.013c0.12-0.453,0.28-0.954,0.48-1.521
					l0.8-2.174h0.74l0.28,4.495h-0.573L145.197,232.95z"/>
				<path fill="#646569" d="M146.891,230.489c0.28-0.053,0.647-0.093,1.114-0.093c0.573,0,0.994,0.133,1.26,0.374
					c0.247,0.213,0.4,0.54,0.4,0.934c0,0.407-0.12,0.727-0.353,0.96c-0.307,0.327-0.807,0.494-1.374,0.494
					c-0.173,0-0.333-0.007-0.467-0.04v1.807h-0.58V230.489z M147.471,232.644c0.127,0.033,0.287,0.047,0.48,0.047
					c0.7,0,1.127-0.34,1.127-0.954c0-0.594-0.42-0.88-1.06-0.88c-0.254,0-0.447,0.02-0.547,0.047V232.644z"/>
				<path fill="#646569" d="M150.559,230.496c0.294-0.06,0.72-0.1,1.114-0.1c0.62,0,1.027,0.12,1.307,0.374
					c0.22,0.193,0.353,0.5,0.353,0.854c0,0.587-0.38,0.98-0.847,1.14v0.02c0.34,0.12,0.547,0.44,0.66,0.907
					c0.147,0.627,0.254,1.06,0.34,1.234h-0.6c-0.073-0.133-0.173-0.513-0.293-1.074c-0.133-0.62-0.38-0.854-0.907-0.874h-0.547
					v1.947h-0.58V230.496z M151.139,232.537h0.594c0.62,0,1.014-0.34,1.014-0.854c0-0.58-0.42-0.834-1.034-0.834
					c-0.28,0-0.473,0.027-0.574,0.053V232.537z"/>
				<path fill="#646569" d="M156.588,232.817h-1.741v1.621h1.947v0.487h-2.534v-4.495h2.434v0.487h-1.847v1.421h1.741V232.817z"/>
				<path fill="#646569" d="M157.595,234.218c0.26,0.16,0.634,0.287,1.034,0.287c0.594,0,0.94-0.307,0.94-0.76
					c0-0.42-0.24-0.667-0.847-0.894c-0.734-0.253-1.187-0.64-1.187-1.267c0-0.7,0.58-1.22,1.454-1.22
					c0.453,0,0.794,0.107,0.987,0.213l-0.16,0.48c-0.14-0.087-0.44-0.213-0.847-0.213c-0.613,0-0.847,0.367-0.847,0.674
					c0,0.413,0.273,0.62,0.894,0.86c0.76,0.3,1.14,0.66,1.14,1.32c0,0.687-0.507,1.294-1.567,1.294
					c-0.433,0-0.907-0.133-1.147-0.293L157.595,234.218z"/>
				<path fill="#646569" d="M161.803,233.511l-0.467,1.414h-0.6l1.527-4.495h0.7l1.534,4.495h-0.62l-0.48-1.414H161.803z
					 M163.277,233.057l-0.447-1.294c-0.093-0.293-0.16-0.56-0.227-0.82h-0.02c-0.06,0.26-0.133,0.54-0.22,0.814l-0.44,1.3H163.277z"
					/>
				<path fill="#646569" d="M165.278,230.496c0.294-0.06,0.72-0.1,1.114-0.1c0.62,0,1.027,0.12,1.307,0.374
					c0.22,0.193,0.353,0.5,0.353,0.854c0,0.587-0.38,0.98-0.847,1.14v0.02c0.34,0.12,0.547,0.44,0.66,0.907
					c0.147,0.627,0.253,1.06,0.34,1.234h-0.6c-0.073-0.133-0.173-0.513-0.293-1.074c-0.133-0.62-0.38-0.854-0.907-0.874h-0.547
					v1.947h-0.58V230.496z M165.858,232.537h0.594c0.62,0,1.014-0.34,1.014-0.854c0-0.58-0.42-0.834-1.034-0.834
					c-0.28,0-0.473,0.027-0.574,0.053V232.537z"/>
				<path fill="#646569" d="M169.566,230.429v4.495h-0.587v-4.495H169.566z"/>
				<path fill="#646569" d="M171.427,233.511l-0.467,1.414h-0.6l1.527-4.495h0.7l1.534,4.495h-0.62l-0.48-1.414H171.427z
					 M172.901,233.057l-0.447-1.294c-0.093-0.293-0.16-0.56-0.227-0.82h-0.02c-0.06,0.26-0.133,0.54-0.22,0.814l-0.44,1.3H172.901z"
					/>
				<path fill="#646569" d="M174.895,230.429h0.587v4.008h1.921v0.487h-2.508V230.429z"/>
				<path fill="#646569" d="M180.396,234.924v-1.907l-1.427-2.588h0.667l0.633,1.24c0.167,0.34,0.307,0.614,0.447,0.927h0.013
					c0.12-0.293,0.28-0.587,0.453-0.927l0.647-1.24h0.654l-1.501,2.581v1.914H180.396z"/>
				<path fill="#646569" d="M184.658,230.496c0.294-0.06,0.72-0.1,1.114-0.1c0.62,0,1.027,0.12,1.307,0.374
					c0.22,0.193,0.353,0.5,0.353,0.854c0,0.587-0.38,0.98-0.847,1.14v0.02c0.34,0.12,0.547,0.44,0.66,0.907
					c0.147,0.627,0.254,1.06,0.34,1.234h-0.6c-0.073-0.133-0.173-0.513-0.293-1.074c-0.133-0.62-0.38-0.854-0.907-0.874h-0.547
					v1.947h-0.58V230.496z M185.238,232.537h0.594c0.62,0,1.014-0.34,1.014-0.854c0-0.58-0.42-0.834-1.034-0.834
					c-0.28,0-0.473,0.027-0.574,0.053V232.537z"/>
				<path fill="#646569" d="M190.687,232.817h-1.741v1.621h1.947v0.487h-2.534v-4.495h2.434v0.487h-1.847v1.421h1.741V232.817z"/>
				<path fill="#646569" d="M191.694,234.218c0.26,0.16,0.634,0.287,1.034,0.287c0.594,0,0.94-0.307,0.94-0.76
					c0-0.42-0.24-0.667-0.847-0.894c-0.734-0.253-1.187-0.64-1.187-1.267c0-0.7,0.58-1.22,1.454-1.22
					c0.453,0,0.794,0.107,0.987,0.213l-0.16,0.48c-0.14-0.087-0.44-0.213-0.847-0.213c-0.613,0-0.847,0.367-0.847,0.674
					c0,0.413,0.274,0.62,0.894,0.86c0.76,0.3,1.14,0.66,1.14,1.32c0,0.687-0.507,1.294-1.567,1.294
					c-0.433,0-0.907-0.133-1.147-0.293L191.694,234.218z"/>
				<path fill="#646569" d="M195.175,230.489c0.28-0.053,0.647-0.093,1.114-0.093c0.573,0,0.994,0.133,1.26,0.374
					c0.247,0.213,0.4,0.54,0.4,0.934c0,0.407-0.12,0.727-0.353,0.96c-0.307,0.327-0.807,0.494-1.374,0.494
					c-0.173,0-0.333-0.007-0.467-0.04v1.807h-0.58V230.489z M195.755,232.644c0.127,0.033,0.287,0.047,0.48,0.047
					c0.7,0,1.127-0.34,1.127-0.954c0-0.594-0.42-0.88-1.06-0.88c-0.254,0-0.447,0.02-0.547,0.047V232.644z"/>
				<path fill="#646569" d="M200.597,234.998c-1.194,0-2.021-0.92-2.021-2.281c0-1.427,0.88-2.361,2.081-2.361
					c1.234,0,2.027,0.94,2.027,2.274c0,1.541-0.94,2.367-2.081,2.367H200.597z M200.63,234.524c0.92,0,1.44-0.847,1.44-1.867
					c0-0.894-0.467-1.827-1.434-1.827c-0.967,0-1.447,0.9-1.447,1.874c0,0.947,0.52,1.821,1.434,1.821H200.63z"/>
				<path fill="#646569" d="M203.558,234.924v-4.495h0.64l1.434,2.274c0.327,0.527,0.594,1,0.8,1.46l0.02-0.007
					c-0.053-0.6-0.067-1.147-0.067-1.841v-1.887h0.547v4.495h-0.587l-1.427-2.281c-0.314-0.5-0.614-1.014-0.834-1.501l-0.02,0.007
					c0.033,0.567,0.04,1.107,0.04,1.854v1.921H203.558z"/>
				<path fill="#646569" d="M207.993,234.218c0.26,0.16,0.634,0.287,1.034,0.287c0.594,0,0.94-0.307,0.94-0.76
					c0-0.42-0.24-0.667-0.847-0.894c-0.734-0.253-1.187-0.64-1.187-1.267c0-0.7,0.58-1.22,1.454-1.22
					c0.453,0,0.794,0.107,0.987,0.213l-0.16,0.48c-0.14-0.087-0.44-0.213-0.847-0.213c-0.613,0-0.847,0.367-0.847,0.674
					c0,0.413,0.273,0.62,0.894,0.86c0.76,0.3,1.14,0.66,1.14,1.32c0,0.687-0.507,1.294-1.567,1.294
					c-0.433,0-0.907-0.133-1.147-0.293L207.993,234.218z"/>
				<path fill="#646569" d="M212.201,233.511l-0.467,1.414h-0.6l1.527-4.495h0.7l1.534,4.495h-0.62l-0.48-1.414H212.201z
					 M213.675,233.057l-0.447-1.294c-0.093-0.293-0.16-0.56-0.227-0.82h-0.02c-0.06,0.26-0.133,0.54-0.22,0.814l-0.44,1.3H213.675z"
					/>
				<path fill="#646569" d="M215.676,230.496c0.254-0.06,0.66-0.1,1.06-0.1c0.58,0,0.954,0.1,1.227,0.327
					c0.233,0.173,0.38,0.44,0.38,0.794c0,0.44-0.294,0.82-0.76,0.987v0.02c0.427,0.1,0.927,0.453,0.927,1.12
					c0,0.387-0.153,0.68-0.387,0.9c-0.307,0.287-0.814,0.42-1.547,0.42c-0.4,0-0.707-0.027-0.9-0.053V230.496z M216.256,232.337
					h0.527c0.607,0,0.967-0.327,0.967-0.76c0-0.52-0.394-0.734-0.98-0.734c-0.267,0-0.42,0.02-0.513,0.04V232.337z M216.256,234.484
					c0.12,0.02,0.28,0.027,0.487,0.027c0.6,0,1.154-0.22,1.154-0.874c0-0.607-0.527-0.867-1.16-0.867h-0.48V234.484z"/>
				<path fill="#646569" d="M219.991,230.429v4.495h-0.587v-4.495H219.991z"/>
				<path fill="#646569" d="M221.118,230.429h0.587v4.008h1.921v0.487h-2.508V230.429z"/>
				<path fill="#646569" d="M224.973,230.429v4.495h-0.587v-4.495H224.973z"/>
				<path fill="#646569" d="M226.1,230.489c0.36-0.053,0.78-0.093,1.24-0.093c0.834,0,1.427,0.193,1.821,0.56
					c0.407,0.367,0.64,0.887,0.64,1.614c0,0.734-0.233,1.334-0.647,1.747c-0.427,0.42-1.121,0.647-1.994,0.647
					c-0.42,0-0.76-0.013-1.06-0.053V230.489z M226.686,234.471c0.147,0.027,0.36,0.027,0.587,0.027
					c1.24,0.007,1.914-0.694,1.914-1.907c0.007-1.06-0.594-1.734-1.821-1.734c-0.3,0-0.527,0.027-0.68,0.06V234.471z"/>
				<path fill="#646569" d="M231.301,233.511l-0.467,1.414h-0.6l1.527-4.495h0.7l1.534,4.495h-0.62l-0.48-1.414H231.301z
					 M232.775,233.057l-0.447-1.294c-0.093-0.293-0.16-0.56-0.227-0.82h-0.02c-0.06,0.26-0.133,0.54-0.22,0.814l-0.44,1.3H232.775z"
					/>
				<path fill="#646569" d="M234.769,230.489c0.36-0.053,0.78-0.093,1.24-0.093c0.834,0,1.427,0.193,1.821,0.56
					c0.407,0.367,0.64,0.887,0.64,1.614c0,0.734-0.233,1.334-0.647,1.747c-0.427,0.42-1.121,0.647-1.994,0.647
					c-0.42,0-0.76-0.013-1.06-0.053V230.489z M235.356,234.471c0.147,0.027,0.36,0.027,0.587,0.027
					c1.24,0.007,1.914-0.694,1.914-1.907c0.007-1.06-0.594-1.734-1.821-1.734c-0.3,0-0.527,0.027-0.68,0.06V234.471z"/>
				<path fill="#646569" d="M240.798,234.218c0.26,0.16,0.634,0.287,1.034,0.287c0.594,0,0.94-0.307,0.94-0.76
					c0-0.42-0.24-0.667-0.847-0.894c-0.734-0.253-1.187-0.64-1.187-1.267c0-0.7,0.58-1.22,1.454-1.22
					c0.453,0,0.794,0.107,0.987,0.213l-0.16,0.48c-0.14-0.087-0.44-0.213-0.847-0.213c-0.613,0-0.847,0.367-0.847,0.674
					c0,0.413,0.273,0.62,0.894,0.86c0.76,0.3,1.14,0.66,1.14,1.32c0,0.687-0.507,1.294-1.567,1.294
					c-0.433,0-0.907-0.133-1.147-0.293L240.798,234.218z"/>
				<path fill="#646569" d="M246.034,234.998c-1.194,0-2.021-0.92-2.021-2.281c0-1.427,0.88-2.361,2.081-2.361
					c1.234,0,2.027,0.94,2.027,2.274c0,1.541-0.94,2.367-2.081,2.367H246.034z M246.067,234.524c0.92,0,1.441-0.847,1.441-1.867
					c0-0.894-0.467-1.827-1.434-1.827c-0.967,0-1.447,0.9-1.447,1.874c0,0.947,0.52,1.821,1.434,1.821H246.067z"/>
				<path fill="#646569" d="M252.129,234.778c-0.207,0.107-0.64,0.213-1.187,0.213c-1.267,0-2.214-0.8-2.214-2.274
					c0-1.407,0.954-2.354,2.348-2.354c0.554,0,0.914,0.12,1.067,0.193l-0.147,0.48c-0.213-0.107-0.527-0.187-0.9-0.187
					c-1.054,0-1.754,0.674-1.754,1.847c0,1.1,0.634,1.801,1.721,1.801c0.36,0,0.72-0.073,0.954-0.187L252.129,234.778z"/>
				<path fill="#646569" d="M253.563,230.429v4.495h-0.587v-4.495H253.563z"/>
				<path fill="#646569" d="M255.424,233.511l-0.467,1.414h-0.6l1.527-4.495h0.7l1.534,4.495h-0.62l-0.48-1.414H255.424z
					 M256.897,233.057l-0.447-1.294c-0.093-0.293-0.16-0.56-0.227-0.82h-0.02c-0.06,0.26-0.133,0.54-0.22,0.814l-0.44,1.3H256.897z"
					/>
				<path fill="#646569" d="M258.891,230.429h0.587v4.008h1.921v0.487h-2.508V230.429z"/>
			</g>
			<g>
				<path fill="#646569" d="M58.245,220.583c-0.402,0.152-0.745,0.277-1.03,0.375c-0.286,0.098-0.56,0.187-0.823,0.268
					c-0.263,0.08-0.645,0.183-1.144,0.308c-0.848,0.196-1.693,0.346-2.536,0.448c-0.843,0.103-1.733,0.154-2.669,0.154
					c-1.882,0-3.622-0.343-5.218-1.03c-1.597-0.687-2.875-1.753-3.833-3.198c-0.959-1.445-1.438-3.22-1.438-5.325
					c0-1.356,0.248-2.687,0.743-3.994c0.495-1.307,1.251-2.353,2.268-3.138c0.838-0.651,1.688-1.148,2.549-1.492
					c0.861-0.343,1.701-0.573,2.522-0.689c0.821-0.116,1.726-0.174,2.716-0.174c1.633,0,2.979,0.123,4.041,0.368
					c1.061,0.246,2.226,0.569,3.492,0.97v4.389c-0.839-0.491-1.726-0.901-2.663-1.231c-0.936-0.33-2.105-0.495-3.505-0.495
					c-1.615,0-2.906,0.306-3.874,0.917c-0.968,0.611-1.641,1.34-2.021,2.188c-0.379,0.848-0.569,1.668-0.569,2.462
					c0,0.937,0.218,1.8,0.656,2.589c0.437,0.789,1.097,1.423,1.98,1.9c0.883,0.477,1.949,0.716,3.198,0.716
					c0.714,0,1.472-0.094,2.275-0.281v-2.181h-2.516v-3.733h7.399V220.583z"/>
				<path fill="#646569" d="M79.644,221.895h-6.008l-1.459-3.292c-0.535-1.204-1.017-2.085-1.445-2.643
					c-0.428-0.557-0.845-0.914-1.251-1.07c-0.406-0.156-0.93-0.234-1.572-0.234h-0.629v7.239h-5.593V203.35h9.513
					c1.534,0,2.792,0.312,3.773,0.937c0.981,0.624,1.688,1.383,2.121,2.275c0.433,0.892,0.649,1.739,0.649,2.542
					c0,0.937-0.181,1.728-0.542,2.375c-0.361,0.647-0.743,1.117-1.144,1.412c-0.402,0.294-0.852,0.575-1.351,0.843
					c0.598,0.348,1.091,0.761,1.478,1.238c0.388,0.477,0.917,1.443,1.586,2.897L79.644,221.895z M72.044,209.21
					c0-0.856-0.281-1.454-0.843-1.793c-0.562-0.339-1.477-0.508-2.743-0.508h-1.177v4.469h1.204c1.365,0,2.299-0.149,2.803-0.448
					C71.792,210.631,72.044,210.058,72.044,209.21z"/>
				<path fill="#646569" d="M100.161,213.586c0,1.588-0.297,2.942-0.89,4.061c-0.593,1.12-1.378,2.005-2.355,2.656
					c-0.977,0.651-2.029,1.12-3.158,1.405c-1.129,0.285-2.255,0.428-3.379,0.428c-1.57,0-3.097-0.268-4.583-0.803
					c-1.485-0.535-2.727-1.445-3.726-2.73c-0.999-1.285-1.499-2.957-1.499-5.018V203.35h5.58v8.791c0,1.222,0.176,2.232,0.529,3.031
					c0.352,0.798,0.843,1.383,1.472,1.753c0.629,0.37,1.371,0.555,2.228,0.555c0.821,0,1.548-0.183,2.181-0.549
					c0.633-0.366,1.126-0.945,1.478-1.739s0.529-1.802,0.529-3.024v-8.818h5.593V213.586z"/>
				<path fill="#646569" d="M119.647,209.183c0,0.687-0.118,1.358-0.354,2.014c-0.236,0.656-0.618,1.267-1.144,1.833
					c-0.526,0.567-1.238,1.026-2.134,1.378c-0.896,0.353-1.951,0.529-3.164,0.529h-3.666v6.958h-5.593V203.35h9.259
					c1.213,0,2.268,0.179,3.164,0.535c0.897,0.357,1.608,0.821,2.134,1.392c0.526,0.571,0.908,1.191,1.144,1.86
					C119.528,207.805,119.647,208.488,119.647,209.183z M113.947,209.21c0-0.883-0.261-1.487-0.783-1.813
					c-0.522-0.326-1.456-0.488-2.803-0.488h-1.177v4.469h1.204c0.928,0,1.641-0.058,2.141-0.174c0.5-0.116,0.861-0.33,1.084-0.642
					C113.835,210.249,113.947,209.799,113.947,209.21z"/>
				<path fill="#646569" d="M141.635,212.609c0,1.731-0.399,3.323-1.197,4.777c-0.798,1.454-1.987,2.609-3.566,3.465
					c-1.579,0.856-3.501,1.285-5.767,1.285c-2.293,0-4.233-0.446-5.82-1.338c-1.588-0.892-2.768-2.065-3.539-3.519
					s-1.157-3.011-1.157-4.67c0-1.668,0.383-3.227,1.151-4.676c0.767-1.449,1.947-2.618,3.539-3.506
					c1.592-0.887,3.535-1.331,5.827-1.331c1.713,0,3.24,0.254,4.583,0.763c1.343,0.508,2.446,1.198,3.312,2.067
					c0.865,0.87,1.521,1.882,1.967,3.037C141.412,210.118,141.635,211.333,141.635,212.609z M135.935,212.609
					c0-0.696-0.103-1.331-0.308-1.907c-0.205-0.575-0.515-1.075-0.93-1.499c-0.415-0.424-0.921-0.754-1.519-0.99
					c-0.598-0.236-1.289-0.355-2.074-0.355c-1.499,0-2.676,0.437-3.532,1.311c-0.856,0.874-1.285,2.021-1.285,3.439
					c0,1.418,0.43,2.567,1.291,3.445c0.861,0.879,2.036,1.318,3.526,1.318c1.026,0,1.9-0.203,2.623-0.609
					c0.723-0.406,1.271-0.968,1.646-1.686C135.748,214.359,135.935,213.537,135.935,212.609z"/>
				<path fill="#646569" d="M167.936,220.503c-0.767,0.401-1.552,0.723-2.355,0.963c-0.803,0.241-1.612,0.413-2.429,0.515
					c-0.816,0.103-1.661,0.154-2.536,0.154c-1.615,0-3.062-0.223-4.342-0.669c-1.28-0.446-2.391-1.104-3.332-1.974
					c-0.941-0.87-1.646-1.887-2.114-3.051c-0.468-1.164-0.702-2.442-0.702-3.833c0-1.597,0.276-2.995,0.83-4.195
					c0.553-1.2,1.327-2.196,2.322-2.991c0.995-0.794,2.127-1.38,3.399-1.759c1.271-0.379,2.611-0.569,4.021-0.569
					c2.105,0,4.491,0.468,7.158,1.405v4.924c-0.919-0.571-1.826-1.046-2.723-1.425c-0.897-0.379-1.951-0.569-3.165-0.569
					c-1.079,0-2.087,0.214-3.024,0.642c-0.937,0.428-1.691,1.039-2.261,1.833c-0.571,0.794-0.856,1.722-0.856,2.783
					c0,0.937,0.25,1.795,0.749,2.576c0.499,0.781,1.193,1.401,2.081,1.86c0.887,0.459,1.889,0.689,3.004,0.689
					c0.901,0,1.753-0.109,2.556-0.328c0.803-0.218,1.479-0.462,2.027-0.729c0.549-0.268,1.113-0.584,1.693-0.95V220.503z"/>
				<path fill="#646569" d="M210.668,221.895h-6.008l-1.458-3.292c-0.535-1.204-1.017-2.085-1.445-2.643
					c-0.428-0.557-0.845-0.914-1.251-1.07c-0.406-0.156-0.93-0.234-1.572-0.234h-0.629v7.239h-5.593V203.35h9.513
					c1.534,0,2.792,0.312,3.773,0.937c0.981,0.624,1.688,1.383,2.121,2.275c0.432,0.892,0.649,1.739,0.649,2.542
					c0,0.937-0.181,1.728-0.542,2.375c-0.361,0.647-0.743,1.117-1.144,1.412c-0.401,0.294-0.852,0.575-1.351,0.843
					c0.598,0.348,1.09,0.761,1.479,1.238c0.388,0.477,0.917,1.443,1.585,2.897L210.668,221.895z M203.068,209.21
					c0-0.856-0.281-1.454-0.843-1.793c-0.562-0.339-1.476-0.508-2.743-0.508h-1.177v4.469h1.204c1.365,0,2.299-0.149,2.803-0.448
					C202.816,210.631,203.068,210.058,203.068,209.21z"/>
				<path fill="#646569" d="M225.216,216.502c0,1.16-0.297,2.163-0.89,3.011c-0.593,0.848-1.421,1.496-2.482,1.947
					c-1.062,0.45-2.279,0.676-3.653,0.676c-0.384,0-0.854-0.025-1.412-0.074c-0.557-0.049-1.298-0.185-2.221-0.408
					c-0.923-0.223-1.884-0.553-2.883-0.99v-4.549c0.937,0.58,1.858,1.062,2.763,1.445c0.905,0.384,1.875,0.575,2.91,0.575
					c0.954,0,1.572-0.158,1.853-0.475c0.281-0.317,0.422-0.613,0.422-0.89c0-0.499-0.241-0.921-0.723-1.264
					c-0.482-0.343-1.182-0.698-2.101-1.064c-1.017-0.428-1.909-0.894-2.676-1.398c-0.767-0.504-1.394-1.135-1.88-1.893
					c-0.486-0.758-0.729-1.654-0.729-2.689c0-0.999,0.245-1.902,0.736-2.709c0.49-0.807,1.24-1.452,2.248-1.934
					c1.008-0.482,2.239-0.722,3.693-0.722c1.035,0,1.991,0.1,2.87,0.301c0.879,0.201,1.603,0.426,2.174,0.676
					c0.571,0.25,0.963,0.446,1.177,0.589v4.349c-0.758-0.544-1.604-1.03-2.535-1.458c-0.932-0.428-1.929-0.642-2.991-0.642
					c-0.696,0-1.2,0.134-1.512,0.401c-0.312,0.268-0.468,0.598-0.468,0.99c0,0.366,0.156,0.682,0.468,0.95
					c0.312,0.268,0.87,0.593,1.672,0.977c1.427,0.669,2.569,1.271,3.425,1.806s1.527,1.153,2.014,1.853
					C224.973,214.587,225.216,215.459,225.216,216.502z"/>
				<path fill="#646569" d="M242.04,221.895h-13.983V203.35h13.755v3.72h-8.162v3.399h7.787v3.733h-7.787v3.961h8.389V221.895z"/>
				<path fill="#646569" d="M261.432,220.503c-0.767,0.401-1.552,0.723-2.355,0.963c-0.803,0.241-1.612,0.413-2.428,0.515
					c-0.816,0.103-1.662,0.154-2.536,0.154c-1.615,0-3.062-0.223-4.342-0.669c-1.28-0.446-2.391-1.104-3.332-1.974
					c-0.941-0.87-1.646-1.887-2.114-3.051c-0.468-1.164-0.702-2.442-0.702-3.833c0-1.597,0.276-2.995,0.83-4.195
					c0.553-1.2,1.327-2.196,2.321-2.991c0.995-0.794,2.128-1.38,3.399-1.759c1.271-0.379,2.611-0.569,4.021-0.569
					c2.105,0,4.491,0.468,7.158,1.405v4.924c-0.919-0.571-1.827-1.046-2.723-1.425c-0.897-0.379-1.952-0.569-3.165-0.569
					c-1.079,0-2.087,0.214-3.024,0.642c-0.937,0.428-1.691,1.039-2.261,1.833c-0.571,0.794-0.856,1.722-0.856,2.783
					c0,0.937,0.249,1.795,0.749,2.576c0.499,0.781,1.193,1.401,2.081,1.86c0.887,0.459,1.889,0.689,3.004,0.689
					c0.901,0,1.753-0.109,2.556-0.328c0.803-0.218,1.478-0.462,2.027-0.729c0.549-0.268,1.113-0.584,1.693-0.95V220.503z"/>
				<path fill="#A3D783" d="M189.523,208.963c-0.446-1.155-1.102-2.168-1.967-3.037c-0.865-0.87-1.969-1.559-3.312-2.067
					s-2.87-0.763-4.583-0.763c-2.292,0-4.235,0.444-5.827,1.331c-1.592,0.888-2.772,2.056-3.539,3.506
					c-0.767,1.449-1.151,3.008-1.151,4.676c0,1.659,0.386,3.216,1.157,4.67c0.772,1.454,1.951,2.627,3.539,3.519
					c1.028,0.577,2.206,0.965,3.529,1.169v-7.191c0,0-0.269-4.352,4.352-5.742c0,0,1.122,5.428-3.634,7.312v5.713
					c0.505,0.05,1.029,0.077,1.574,0.077c2.266,0,4.188-0.428,5.767-1.285c1.579-0.856,2.768-2.011,3.566-3.465
					c0.798-1.454,1.198-3.046,1.198-4.777C190.192,211.333,189.969,210.118,189.523,208.963z"/>
			</g>
		</g>
	</g>
</g>
</svg>
