<svg width="105" height="105" viewBox="0 0 105 105" fill="none" xmlns="http://www.w3.org/2000/svg">
<rect width="105" height="105" rx="3" fill="#FF6500"/>
<path d="M24.8203 72L24.1875 74.4844H19.4531L16.3359 87H10.6172L13.7344 74.4844H9L9.63281 72H24.8203Z" fill="white"/>
<path d="M42.7502 72L40.1018 82.5469C39.6955 84.1563 39.1096 85.3047 38.3439 85.9922C37.5939 86.6641 36.508 87 35.0861 87H26.9768C24.9455 87 23.9299 86.0781 23.9299 84.2344C23.9299 83.7344 24.008 83.1719 24.1643 82.5469L26.8127 72H32.5314L29.7424 83.1563C29.6955 83.3438 29.6721 83.5156 29.6721 83.6719C29.6721 84.2344 30.0236 84.5156 30.7268 84.5156H35.7893C36.3049 84.5156 36.6721 84.4375 36.8908 84.2813C37.1252 84.125 37.3049 83.7969 37.4299 83.2969L40.2658 72H42.7502Z" fill="white"/>
<path d="M62.5558 72L53.0167 87H46.6183L44.9074 72H51.0011L52.3136 83.8125L59.8136 72H62.5558Z" fill="white"/>
<path d="M78.5067 72L77.8739 74.4844H69.9754C69.3192 74.4844 68.9364 74.6875 68.827 75.0938L68.5692 76.0547C68.5536 76.1328 68.5457 76.1953 68.5457 76.2422C68.5457 76.5078 68.8426 76.6406 69.4364 76.6406H73.702C75.7332 76.6406 76.7489 77.3203 76.7489 78.6797C76.7489 78.9453 76.7098 79.2266 76.6317 79.5234L75.6473 83.4609C75.0536 85.8203 73.6317 87 71.3817 87H60.3192L60.9286 84.5156H68.9442C69.5379 84.5156 69.8895 84.2969 69.9989 83.8594L70.2567 82.8281C70.2879 82.7344 70.3036 82.6484 70.3036 82.5703C70.3036 82.3047 70.0223 82.1719 69.4598 82.1719H64.5614C62.9364 82.1719 62.1239 81.5781 62.1239 80.3906C62.1239 80.0156 62.1864 79.5625 62.3114 79.0313L63.202 75.4453C63.452 74.4453 63.8973 73.6406 64.5379 73.0313C65.2411 72.3438 66.1004 72 67.1161 72H78.5067Z" fill="white"/>
<path d="M95.576 87H89.5057L88.8025 82.9688H82.2166L79.24 87H76.4744L87.3963 72H93.115L95.576 87ZM88.4275 80.4844L87.5603 75.4219L83.9978 80.4844H88.4275Z" fill="white"/>
<path fill-rule="evenodd" clip-rule="evenodd" d="M44.9127 9C45.5632 9 46.0406 9.61139 45.8828 10.2425L45.0605 13.5316L45.109 13.489C48.6499 10.3863 53.0603 9 57.9143 9H85.5268C89.1478 9 92.7968 9.81275 95.5546 12.3198C98.4028 14.9091 99.4127 18.4854 99.4127 22.0781C99.4127 24.0349 99.1209 26.0802 98.6101 28.1802L98.6073 28.1917L93.39 49.2078C92.1544 54.1783 89.9905 58.4611 86.5362 61.5028C83.0093 64.6087 78.6147 66 73.7768 66H46.1643C42.5276 66 38.8665 65.1914 36.0966 62.6939C35.0148 61.7186 34.1955 60.6018 33.5945 59.3956L32.1328 65.2425C32.0215 65.6877 31.6215 66 31.1627 66H5.00049C4.35014 66 3.87282 65.389 4.03022 64.758L11.5622 34.5623C11.7196 33.9313 11.2423 33.3203 10.5919 33.3203H6.47743C5.82772 33.3203 5.35053 32.7104 5.50679 32.0798L9.49173 15.9977L34.1921 9.03748C34.2803 9.01261 34.3716 9 34.4633 9H44.9127ZM10.1208 61L18.2724 28.3203H11.5896L13.6458 20.0219L35.0161 14H39.7896L28.0396 61H10.1208ZM43.0799 26.9984L37.8658 48.0016C37.4252 49.813 37.2049 51.4531 37.2049 52.9219C37.2049 58.3073 40.1914 61 46.1643 61H73.7768C81.4632 61 86.3835 56.6672 88.5377 48.0016L93.7518 26.9984C94.1924 25.187 94.4127 23.5469 94.4127 22.0781C94.4127 16.6927 91.4507 14 85.5268 14H57.9143C50.1789 14 45.2341 18.3328 43.0799 26.9984Z" fill="white"/>
<path d="M39.7896 14L28.0396 61H10.1208L18.2724 28.3203H11.5896L13.6458 20.0219L35.0161 14H39.7896Z" fill="#FF6500"/>
<path d="M93.7518 26.9984L88.5377 48.0016C86.3835 56.6672 81.4632 61 73.7768 61H46.1643C40.1914 61 37.2049 58.3073 37.2049 52.9219C37.2049 51.4531 37.4252 49.813 37.8658 48.0016L43.0799 26.9984C45.2341 18.3328 50.1789 14 57.9143 14H85.5268C91.4507 14 94.4127 16.6927 94.4127 22.0781C94.4127 23.5469 94.1924 25.187 93.7518 26.9984ZM76.4205 24.6484C76.5184 24.2568 76.5674 23.9141 76.5674 23.6203C76.5674 22.3964 75.6372 21.7844 73.7768 21.7844H65.6986C63.4466 21.7844 62.0757 22.7391 61.5862 24.6484L55.1971 50.3516C55.0992 50.7432 55.0502 51.0859 55.0502 51.3797C55.0502 52.6036 55.9804 53.2156 57.8408 53.2156H65.919C68.171 53.2156 69.5419 52.2609 70.0315 50.3516L76.4205 24.6484Z" fill="#FF6500"/>
<path d="M65.919 53.2156C68.171 53.2156 69.5419 52.2609 70.0315 50.3516L76.4205 24.6484C76.5184 24.2568 76.5674 23.9141 76.5674 23.6203C76.5674 22.3964 75.6372 21.7844 73.7768 21.7844H65.6986C63.4466 21.7844 62.0757 22.7391 61.5862 24.6484L55.1971 50.3516C55.0992 50.7432 55.0502 51.0859 55.0502 51.3797C55.0502 52.6036 55.9804 53.2156 57.8408 53.2156H65.919Z" fill="white"/>
<rect x="4" y="90" width="96" height="5" fill="white"/>
</svg>
