<svg width="384" height="105" viewBox="0 0 384 105" fill="none" xmlns="http://www.w3.org/2000/svg">
<rect width="384" height="105" rx="3" fill="#FF6500"/>
<path d="M131.821 20L131.348 21.8449H126.915L123.787 34.3989H119.556L122.684 21.8449H118.25L118.723 20H131.821Z" fill="white"/>
<path d="M137.704 23.8247L137.186 25.9396H133.045C132.58 25.9396 132.288 26.1795 132.168 26.6595L130.232 34.3989H126.317L128.95 23.8247H132.483L132.348 24.9721H132.393C132.663 24.2072 133.33 23.8247 134.396 23.8247H137.704Z" fill="white"/>
<path d="M150.811 26.5695L148.854 34.3989H145.455L145.545 33.2965H145.5C145.035 34.0315 144.473 34.3989 143.813 34.3989H138.749C137.474 34.3989 136.836 33.799 136.836 32.5991C136.836 32.1641 136.911 31.6241 137.061 30.9792L137.174 30.4842C137.444 29.2693 137.849 28.3994 138.389 27.8744C138.944 27.3345 139.694 27.0645 140.64 27.0645H146.761L147.076 25.8496C147.151 25.5496 147.008 25.3996 146.648 25.3996H138.839L139.222 23.8247H148.854C150.249 23.8247 150.947 24.4022 150.947 25.5571C150.947 25.8571 150.902 26.1945 150.811 26.5695ZM146.356 28.7293H142.192C141.757 28.7293 141.48 28.9693 141.36 29.4493L140.707 32.0366C140.677 32.1566 140.662 32.2541 140.662 32.3291C140.662 32.5991 140.812 32.7341 141.112 32.7341H144.69C145.125 32.7341 145.403 32.5016 145.523 32.0366L146.356 28.7293Z" fill="white"/>
<path d="M164.896 26.5695L162.938 34.3989H159.022L161.07 26.2095C161.1 26.1045 161.115 26.0071 161.115 25.9171C161.115 25.6321 160.927 25.4896 160.552 25.4896H157.267C156.801 25.4896 156.509 25.7296 156.389 26.2095L154.341 34.3989H150.425L153.058 23.8247H156.839L156.569 24.9046H156.614C156.989 24.1847 157.492 23.8247 158.122 23.8247H163.028C164.363 23.8247 165.031 24.4022 165.031 25.5571C165.031 25.8571 164.986 26.1945 164.896 26.5695Z" fill="white"/>
<path d="M179.185 23.8247L178.803 25.3996H171.241C170.791 25.3996 170.521 25.5946 170.431 25.9846L170.296 26.547C170.281 26.622 170.274 26.6895 170.274 26.7495C170.274 27.0195 170.446 27.1545 170.791 27.1545H175.742C177.167 27.1545 177.88 27.6869 177.88 28.7518C177.88 28.9618 177.85 29.1943 177.79 29.4493L177.115 32.1266C176.74 33.6415 175.682 34.3989 173.942 34.3989H164.512L164.895 32.824H172.321C172.847 32.824 173.169 32.5916 173.289 32.1266L173.447 31.4966C173.552 31.0617 173.319 30.8442 172.749 30.8442H167.708C166.523 30.8442 165.93 30.2817 165.93 29.1568C165.93 28.8268 165.983 28.4594 166.088 28.0544L166.47 26.547C166.935 24.7321 167.933 23.8247 169.463 23.8247H179.185Z" fill="white"/>
<path d="M192.744 26.547L191.461 31.6541C190.996 33.484 189.923 34.3989 188.243 34.3989H183.382C183.052 34.3989 182.812 34.3014 182.662 34.1064C182.557 33.9565 182.474 33.694 182.414 33.319H182.324L181.064 38.4036H177.148L180.771 23.8247H184.687L184.439 24.8146H184.484C184.799 24.1547 185.235 23.8247 185.79 23.8247H190.876C192.211 23.8247 192.879 24.4022 192.879 25.5571C192.879 25.8571 192.834 26.187 192.744 26.547ZM188.918 26.2095C188.948 26.0895 188.963 25.9846 188.963 25.8946C188.963 25.6246 188.775 25.4896 188.4 25.4896H184.889C184.484 25.4896 184.222 25.7296 184.102 26.2095L182.639 32.0141C182.609 32.1341 182.594 32.2391 182.594 32.3291C182.594 32.5991 182.782 32.7341 183.157 32.7341H186.577C187.042 32.7341 187.335 32.4941 187.455 32.0141L188.918 26.2095Z" fill="white"/>
<path d="M206.963 26.547L205.68 31.6766C205.23 33.4915 204.142 34.3989 202.417 34.3989H194.945C193.58 34.3989 192.897 33.8215 192.897 32.6666C192.897 32.3816 192.942 32.0516 193.032 31.6766L194.315 26.547C194.765 24.7321 195.853 23.8247 197.578 23.8247H205.05C206.415 23.8247 207.098 24.4022 207.098 25.5571C207.098 25.8421 207.053 26.172 206.963 26.547ZM203.137 26.2095C203.167 26.0895 203.182 25.9921 203.182 25.9171C203.182 25.6321 203.009 25.4896 202.664 25.4896H199.154C198.719 25.4896 198.441 25.7296 198.321 26.2095L196.858 32.0141C196.828 32.1341 196.813 32.2316 196.813 32.3066C196.813 32.5916 196.986 32.7341 197.331 32.7341H200.841C201.276 32.7341 201.554 32.4941 201.674 32.0141L203.137 26.2095Z" fill="white"/>
<path d="M217.964 23.8247L217.446 25.9396H213.305C212.84 25.9396 212.548 26.1795 212.427 26.6595L210.492 34.3989H206.576L209.209 23.8247H212.743L212.608 24.9721H212.653C212.923 24.2072 213.59 23.8247 214.655 23.8247H217.964Z" fill="white"/>
<path d="M228.945 23.8247L228.563 25.3996H224.76L223.162 31.7891C223.117 31.9391 223.094 32.0666 223.094 32.1716C223.094 32.5466 223.327 32.7341 223.792 32.7341H227.685L227.28 34.3989H221.181C219.846 34.3989 219.178 33.784 219.178 32.5541C219.178 32.2241 219.231 31.8566 219.336 31.4516L220.844 25.3996H218.796L219.178 23.8247H221.226L221.766 21.6649L225.817 21.1474L225.142 23.8247H228.945Z" fill="white"/>
<path d="M236.183 20.27L235.553 22.7898H231.637L232.268 20.27H236.183ZM235.283 23.8247L232.65 34.3989H228.734L231.367 23.8247H235.283Z" fill="white"/>
<path d="M249.116 23.8247L248.733 25.3996H241.172C240.722 25.3996 240.452 25.5946 240.362 25.9846L240.227 26.547C240.212 26.622 240.204 26.6895 240.204 26.7495C240.204 27.0195 240.377 27.1545 240.722 27.1545H245.673C247.098 27.1545 247.811 27.6869 247.811 28.7518C247.811 28.9618 247.781 29.1943 247.721 29.4493L247.046 32.1266C246.671 33.6415 245.613 34.3989 243.872 34.3989H234.443L234.826 32.824H242.252C242.777 32.824 243.1 32.5916 243.22 32.1266L243.377 31.4966C243.482 31.0617 243.25 30.8442 242.68 30.8442H237.639C236.454 30.8442 235.861 30.2817 235.861 29.1568C235.861 28.8268 235.913 28.4594 236.018 28.0544L236.401 26.547C236.866 24.7321 237.864 23.8247 239.394 23.8247H249.116Z" fill="white"/>
<path d="M260.109 23.8247L259.726 25.3996H255.923L254.325 31.7891C254.28 31.9391 254.258 32.0666 254.258 32.1716C254.258 32.5466 254.49 32.7341 254.955 32.7341H258.848L258.443 34.3989H252.345C251.009 34.3989 250.342 33.784 250.342 32.5541C250.342 32.2241 250.394 31.8566 250.499 31.4516L252.007 25.3996H249.959L250.342 23.8247H252.39L252.93 21.6649L256.981 21.1474L256.305 23.8247H260.109Z" fill="white"/>
<path d="M274.278 26.5695L272.32 34.3989H268.922L269.012 33.2965H268.967C268.502 34.0315 267.939 34.3989 267.279 34.3989H262.216C260.94 34.3989 260.303 33.799 260.303 32.5991C260.303 32.1641 260.378 31.6241 260.528 30.9792L260.64 30.4842C260.91 29.2693 261.315 28.3994 261.856 27.8744C262.411 27.3345 263.161 27.0645 264.106 27.0645H270.227L270.542 25.8496C270.617 25.5496 270.475 25.3996 270.115 25.3996H262.306L262.688 23.8247H272.32C273.715 23.8247 274.413 24.4022 274.413 25.5571C274.413 25.8571 274.368 26.1945 274.278 26.5695ZM269.822 28.7293H265.659C265.224 28.7293 264.946 28.9693 264.826 29.4493L264.174 32.0366C264.144 32.1566 264.129 32.2541 264.129 32.3291C264.129 32.5991 264.279 32.7341 264.579 32.7341H268.157C268.592 32.7341 268.869 32.5016 268.989 32.0366L269.822 28.7293Z" fill="white"/>
<path d="M288.565 23.8247L288.182 25.3996H280.621C280.17 25.3996 279.9 25.5946 279.81 25.9846L279.675 26.547C279.66 26.622 279.653 26.6895 279.653 26.7495C279.653 27.0195 279.825 27.1545 280.17 27.1545H285.121C286.547 27.1545 287.259 27.6869 287.259 28.7518C287.259 28.9618 287.229 29.1943 287.169 29.4493L286.494 32.1266C286.119 33.6415 285.061 34.3989 283.321 34.3989H273.892L274.274 32.824H281.701C282.226 32.824 282.548 32.5916 282.668 32.1266L282.826 31.4966C282.931 31.0617 282.698 30.8442 282.128 30.8442H277.087C275.902 30.8442 275.31 30.2817 275.31 29.1568C275.31 28.8268 275.362 28.4594 275.467 28.0544L275.85 26.547C276.315 24.7321 277.312 23.8247 278.843 23.8247H288.565Z" fill="white"/>
<path d="M313.45 20L310.457 31.9466C310.292 32.6066 309.902 33.184 309.287 33.679C308.672 34.1589 308.019 34.3989 307.329 34.3989H298.372C297.787 34.3989 297.307 34.2189 296.932 33.859C296.572 33.499 296.392 33.049 296.392 32.5091C296.392 32.3291 296.415 32.1416 296.46 31.9466L299.453 20H303.684L300.69 31.9466C300.675 32.0216 300.668 32.0891 300.668 32.1491C300.668 32.4191 300.848 32.5541 301.208 32.5541H307.689C308.139 32.5541 308.417 32.3516 308.522 31.9466L311.515 20H313.45Z" fill="white"/>
<path d="M326.118 26.5695L324.161 34.3989H320.245L322.293 26.2095C322.323 26.1045 322.338 26.0071 322.338 25.9171C322.338 25.6321 322.15 25.4896 321.775 25.4896H318.489C318.024 25.4896 317.732 25.7296 317.612 26.2095L315.564 34.3989H311.648L314.281 23.8247H318.062L317.792 24.9046H317.837C318.212 24.1847 318.715 23.8247 319.345 23.8247H324.251C325.586 23.8247 326.254 24.4022 326.254 25.5571C326.254 25.8571 326.209 26.1945 326.118 26.5695Z" fill="white"/>
<path d="M333.409 20.27L332.779 22.7898H328.864L329.494 20.27H333.409ZM332.509 23.8247L329.876 34.3989H325.96L328.593 23.8247H332.509Z" fill="white"/>
<path d="M347.917 20L344.317 34.3989H340.401L340.648 33.409H340.603C340.288 34.069 339.853 34.3989 339.298 34.3989H334.212C332.877 34.3989 332.209 33.8215 332.209 32.6666C332.209 32.3666 332.254 32.0366 332.344 31.6766L333.627 26.5695C334.092 24.7396 335.165 23.8247 336.845 23.8247H341.706C342.036 23.8247 342.276 23.9222 342.426 24.1172C342.531 24.2672 342.614 24.5297 342.674 24.9046H342.764L344.002 20H347.917ZM342.449 26.2095C342.479 26.0895 342.494 25.9846 342.494 25.8946C342.494 25.6246 342.306 25.4896 341.931 25.4896H338.511C338.045 25.4896 337.753 25.7296 337.633 26.2095L336.17 32.0141C336.14 32.1341 336.125 32.2391 336.125 32.3291C336.125 32.5991 336.313 32.7341 336.688 32.7341H340.198C340.603 32.7341 340.866 32.4941 340.986 32.0141L342.449 26.2095Z" fill="white"/>
<path d="M360.713 26.547L359.431 31.6766C358.981 33.4915 357.893 34.3989 356.167 34.3989H348.696C347.331 34.3989 346.648 33.8215 346.648 32.6666C346.648 32.3816 346.693 32.0516 346.783 31.6766L348.066 26.547C348.516 24.7321 349.604 23.8247 351.329 23.8247H358.801C360.166 23.8247 360.848 24.4022 360.848 25.5571C360.848 25.8421 360.803 26.172 360.713 26.547ZM356.888 26.2095C356.918 26.0895 356.933 25.9921 356.933 25.9171C356.933 25.6321 356.76 25.4896 356.415 25.4896H352.904C352.469 25.4896 352.192 25.7296 352.072 26.2095L350.609 32.0141C350.579 32.1341 350.564 32.2316 350.564 32.3066C350.564 32.5916 350.736 32.7341 351.082 32.7341H354.592C355.027 32.7341 355.305 32.4941 355.425 32.0141L356.888 26.2095Z" fill="white"/>
<path d="M375 23.8247L374.617 25.3996H367.056C366.606 25.3996 366.336 25.5946 366.246 25.9846L366.111 26.547C366.096 26.622 366.088 26.6895 366.088 26.7495C366.088 27.0195 366.261 27.1545 366.606 27.1545H371.557C372.982 27.1545 373.695 27.6869 373.695 28.7518C373.695 28.9618 373.665 29.1943 373.605 29.4493L372.93 32.1266C372.555 33.6415 371.497 34.3989 369.756 34.3989H360.327L360.71 32.824H368.136C368.661 32.824 368.984 32.5916 369.104 32.1266L369.261 31.4966C369.366 31.0617 369.134 30.8442 368.564 30.8442H363.523C362.338 30.8442 361.745 30.2817 361.745 29.1568C361.745 28.8268 361.797 28.4594 361.902 28.0544L362.285 26.547C362.75 24.7321 363.748 23.8247 365.278 23.8247H375Z" fill="white"/>
<path d="M131.708 45.3106L128.107 59.7095H124.192L124.439 58.7196H124.394C124.079 59.3796 123.644 59.7095 123.089 59.7095H118.003C116.668 59.7095 116 59.1321 116 57.9772C116 57.6772 116.045 57.3472 116.135 56.9872L117.418 51.8801C117.883 50.0503 118.956 49.1353 120.636 49.1353H125.497C125.827 49.1353 126.067 49.2328 126.217 49.4278C126.322 49.5778 126.405 49.8403 126.465 50.2152H126.555L127.792 45.3106H131.708ZM126.24 51.5201C126.27 51.4002 126.285 51.2952 126.285 51.2052C126.285 50.9352 126.097 50.8002 125.722 50.8002H122.301C121.836 50.8002 121.544 51.0402 121.424 51.5201L119.961 57.3247C119.931 57.4447 119.916 57.5497 119.916 57.6397C119.916 57.9097 120.103 58.0447 120.478 58.0447H123.989C124.394 58.0447 124.657 57.8047 124.777 57.3247L126.24 51.5201Z" fill="white"/>
<path d="M144.504 51.8576L143.626 55.3899H134.895L134.4 57.3247C134.37 57.4447 134.355 57.5422 134.355 57.6172C134.355 57.9022 134.527 58.0447 134.872 58.0447H142.726L142.321 59.7095H132.487C131.121 59.7095 130.439 59.1321 130.439 57.9772C130.439 57.6922 130.484 57.3622 130.574 56.9872L131.857 51.8576C132.307 50.0428 133.394 49.1353 135.12 49.1353H142.591C143.957 49.1353 144.639 49.7128 144.639 50.8677C144.639 51.1527 144.594 51.4827 144.504 51.8576ZM140.678 51.5201C140.708 51.4002 140.723 51.3027 140.723 51.2277C140.723 50.9427 140.551 50.8002 140.206 50.8002H136.695C136.26 50.8002 135.982 51.0402 135.862 51.5201L135.3 53.725H140.116L140.678 51.5201Z" fill="white"/>
<path d="M151.859 45.3106L148.259 59.7095H144.343L147.944 45.3106H151.859Z" fill="white"/>
<path d="M176.682 45.3106L167.568 59.7095H163.72L161.717 45.3106H166.195L167.613 56.6048L174.567 45.3106H176.682Z" fill="white"/>
<path d="M187.271 51.8801L185.313 59.7095H181.915L182.005 58.6071H181.96C181.495 59.3421 180.933 59.7095 180.272 59.7095H175.209C173.934 59.7095 173.296 59.1096 173.296 57.9097C173.296 57.4747 173.371 56.9347 173.521 56.2898L173.634 55.7948C173.904 54.5799 174.309 53.71 174.849 53.185C175.404 52.6451 176.154 52.3751 177.099 52.3751H183.22L183.536 51.1602C183.611 50.8602 183.468 50.7102 183.108 50.7102H175.299L175.681 49.1353H185.313C186.709 49.1353 187.406 49.7128 187.406 50.8677C187.406 51.1677 187.361 51.5052 187.271 51.8801ZM182.815 54.04H178.652C178.217 54.04 177.939 54.2799 177.819 54.7599L177.167 57.3472C177.137 57.4672 177.122 57.5647 177.122 57.6397C177.122 57.9097 177.272 58.0447 177.572 58.0447H181.15C181.585 58.0447 181.863 57.8122 181.983 57.3472L182.815 54.04Z" fill="white"/>
<path d="M194.627 45.3106L191.026 59.7095H187.11L190.711 45.3106H194.627Z" fill="white"/>
<path d="M200.56 45.3106L196.96 59.7095H193.044L196.645 45.3106H200.56Z" fill="white"/>
<path d="M213.358 51.8576L212.48 55.3899H203.749L203.253 57.3247C203.223 57.4447 203.208 57.5422 203.208 57.6172C203.208 57.9022 203.381 58.0447 203.726 58.0447H211.58L211.175 59.7095H201.341C199.975 59.7095 199.293 59.1321 199.293 57.9772C199.293 57.6922 199.338 57.3622 199.428 56.9872L200.71 51.8576C201.161 50.0428 202.248 49.1353 203.974 49.1353H211.445C212.81 49.1353 213.493 49.7128 213.493 50.8677C213.493 51.1527 213.448 51.4827 213.358 51.8576ZM209.532 51.5201C209.562 51.4002 209.577 51.3027 209.577 51.2277C209.577 50.9427 209.405 50.8002 209.06 50.8002H205.549C205.114 50.8002 204.836 51.0402 204.716 51.5201L204.154 53.725H208.97L209.532 51.5201Z" fill="white"/>
<path d="M237.329 45.3106L233.729 59.7095H229.813L230.06 58.7196H230.015C229.7 59.3796 229.265 59.7095 228.71 59.7095H223.624C222.289 59.7095 221.621 59.1321 221.621 57.9772C221.621 57.6772 221.666 57.3472 221.756 56.9872L223.039 51.8801C223.504 50.0503 224.577 49.1353 226.257 49.1353H231.118C231.448 49.1353 231.688 49.2328 231.838 49.4278C231.943 49.5778 232.026 49.8403 232.086 50.2152H232.176L233.414 45.3106H237.329ZM231.861 51.5201C231.891 51.4002 231.906 51.2952 231.906 51.2052C231.906 50.9352 231.718 50.8002 231.343 50.8002H227.922C227.457 50.8002 227.165 51.0402 227.045 51.5201L225.582 57.3247C225.552 57.4447 225.537 57.5497 225.537 57.6397C225.537 57.9097 225.725 58.0447 226.1 58.0447H229.61C230.015 58.0447 230.278 57.8047 230.398 57.3247L231.861 51.5201Z" fill="white"/>
<path d="M250.125 51.8576L249.248 55.3899H240.516L240.021 57.3247C239.991 57.4447 239.976 57.5422 239.976 57.6172C239.976 57.9022 240.148 58.0447 240.493 58.0447H248.348L247.942 59.7095H238.108C236.743 59.7095 236.06 59.1321 236.06 57.9772C236.06 57.6922 236.105 57.3622 236.195 56.9872L237.478 51.8576C237.928 50.0428 239.016 49.1353 240.741 49.1353H248.212C249.578 49.1353 250.26 49.7128 250.26 50.8677C250.26 51.1527 250.215 51.4827 250.125 51.8576ZM246.3 51.5201C246.33 51.4002 246.345 51.3027 246.345 51.2277C246.345 50.9427 246.172 50.8002 245.827 50.8002H242.316C241.881 50.8002 241.604 51.0402 241.484 51.5201L240.921 53.725H245.737L246.3 51.5201Z" fill="white"/>
<path d="M280.488 45.3106L276.887 59.7095H272.792L275.875 47.3805H275.83L267.818 59.7095H264.892L263.137 47.3805H263.092L260.009 59.7095H258.074L261.674 45.3106H267.075L268.583 55.7723L275.38 45.3106H280.488Z" fill="white"/>
<path d="M293.288 51.8576L292.41 55.3899H283.679L283.184 57.3247C283.154 57.4447 283.139 57.5422 283.139 57.6172C283.139 57.9022 283.311 58.0447 283.656 58.0447H291.51L291.105 59.7095H281.271C279.905 59.7095 279.223 59.1321 279.223 57.9772C279.223 57.6922 279.268 57.3622 279.358 56.9872L280.641 51.8576C281.091 50.0428 282.178 49.1353 283.904 49.1353H291.375C292.74 49.1353 293.423 49.7128 293.423 50.8677C293.423 51.1527 293.378 51.4827 293.288 51.8576ZM289.462 51.5201C289.492 51.4002 289.507 51.3027 289.507 51.2277C289.507 50.9427 289.335 50.8002 288.99 50.8002H285.479C285.044 50.8002 284.766 51.0402 284.646 51.5201L284.084 53.725H288.9L289.462 51.5201ZM292.59 44.6807L288.45 47.9654H286.222L289.147 44.6807H292.59Z" fill="white"/>
<path d="M308.092 49.1803L302.489 53.6575L305.504 59.7095H300.711L299.113 56.4248L295.017 59.7095H292.879L298.483 55.2324L295.422 49.1353H300.216L301.836 52.4876L305.977 49.1803H308.092Z" fill="white"/>
<path d="M314.663 45.5806L314.033 48.1004H310.117L310.747 45.5806H314.663ZM313.763 49.1353L311.13 59.7095H307.214L309.847 49.1353H313.763Z" fill="white"/>
<path d="M326.673 49.1353L326.268 50.8002H319.719C319.284 50.8002 319.007 51.0402 318.886 51.5201L317.424 57.3247C317.394 57.4447 317.379 57.5422 317.379 57.6172C317.379 57.9022 317.551 58.0447 317.896 58.0447H324.445L324.04 59.7095H315.511C314.146 59.7095 313.463 59.1321 313.463 57.9772C313.463 57.6922 313.508 57.3622 313.598 56.9872L314.881 51.8576C315.331 50.0428 316.419 49.1353 318.144 49.1353H326.673Z" fill="white"/>
<path d="M339.879 51.8576L338.596 56.9872C338.146 58.8021 337.059 59.7095 335.333 59.7095H327.862C326.497 59.7095 325.814 59.1321 325.814 57.9772C325.814 57.6922 325.859 57.3622 325.949 56.9872L327.232 51.8576C327.682 50.0428 328.77 49.1353 330.495 49.1353H337.966C339.332 49.1353 340.014 49.7128 340.014 50.8677C340.014 51.1527 339.969 51.4827 339.879 51.8576ZM336.053 51.5201C336.083 51.4002 336.098 51.3027 336.098 51.2277C336.098 50.9427 335.926 50.8002 335.581 50.8002H332.07C331.635 50.8002 331.358 51.0402 331.238 51.5201L329.775 57.3247C329.745 57.4447 329.73 57.5422 329.73 57.6172C329.73 57.9022 329.902 58.0447 330.247 58.0447H333.758C334.193 58.0447 334.471 57.8047 334.591 57.3247L336.053 51.5201Z" fill="white"/>
<path d="M130.898 70.6212L130.425 72.4661H123.809C123.314 72.4661 122.999 72.7211 122.864 73.231L120.568 82.4103C120.538 82.5303 120.523 82.6353 120.523 82.7253C120.523 83.0253 120.726 83.1753 121.131 83.1753H127.747L127.297 85.0202H118.52C117.005 85.0202 116.248 84.3977 116.248 83.1528C116.248 82.8528 116.293 82.5303 116.383 82.1854L118.566 73.456C119.031 71.5662 120.216 70.6212 122.121 70.6212H130.898Z" fill="white"/>
<path d="M136.717 70.6212L133.117 85.0202H129.201L132.801 70.6212H136.717Z" fill="white"/>
<path d="M149.515 77.1907L147.557 85.0202H144.159L144.249 83.9177H144.204C143.739 84.6527 143.176 85.0202 142.516 85.0202H137.452C136.177 85.0202 135.54 84.4202 135.54 83.2203C135.54 82.7853 135.615 82.2454 135.765 81.6004L135.877 81.1054C136.147 79.8905 136.552 79.0206 137.092 78.4956C137.648 77.9557 138.398 77.6857 139.343 77.6857H145.464L145.779 76.4708C145.854 76.1708 145.712 76.0208 145.352 76.0208H137.543L137.925 74.4459H147.557C148.952 74.4459 149.65 75.0234 149.65 76.1783C149.65 76.4783 149.605 76.8158 149.515 77.1907ZM145.059 79.3506H140.896C140.461 79.3506 140.183 79.5906 140.063 80.0705L139.41 82.6578C139.38 82.7778 139.365 82.8753 139.365 82.9503C139.365 83.2203 139.515 83.3553 139.815 83.3553H143.394C143.829 83.3553 144.106 83.1228 144.226 82.6578L145.059 79.3506Z" fill="white"/>
<path d="M165.275 74.4459L157.623 85.0202H153.708L151.255 74.4459H155.463L157.376 82.9053L163.474 74.4459H165.275Z" fill="white"/>
<path d="M178.283 77.1682L177.405 80.7005H168.673L168.178 82.6353C168.148 82.7553 168.133 82.8528 168.133 82.9278C168.133 83.2128 168.306 83.3553 168.651 83.3553H176.505L176.1 85.0202H166.265C164.9 85.0202 164.217 84.4427 164.217 83.2878C164.217 83.0028 164.262 82.6728 164.352 82.2978L165.635 77.1682C166.085 75.3534 167.173 74.4459 168.898 74.4459H176.37C177.735 74.4459 178.418 75.0234 178.418 76.1783C178.418 76.4633 178.373 76.7933 178.283 77.1682ZM174.457 76.8308C174.487 76.7108 174.502 76.6133 174.502 76.5383C174.502 76.2533 174.329 76.1108 173.984 76.1108H170.474C170.039 76.1108 169.761 76.3508 169.641 76.8308L169.078 79.0356H173.894L174.457 76.8308Z" fill="white"/>
<path d="M195.885 70.6212L192.285 85.0202H188.054L190.754 74.176H188.931L189.359 72.4436L194.378 70.6212H195.885Z" fill="white"/>
<path d="M211.602 73.141L209.261 82.5003C209.066 83.2653 208.684 83.8802 208.114 84.3452C207.544 84.7952 206.838 85.0202 205.998 85.0202H196.951C195.556 85.0202 194.859 84.4277 194.859 83.2428C194.859 83.0178 194.889 82.7703 194.949 82.5003L197.289 73.141C197.484 72.3761 197.867 71.7686 198.437 71.3187C199.007 70.8537 199.712 70.6212 200.552 70.6212H209.599C210.994 70.6212 211.692 71.2137 211.692 72.3986C211.692 72.6236 211.662 72.8711 211.602 73.141ZM207.394 73.0285C207.484 72.6536 207.289 72.4661 206.808 72.4661H202.398C201.917 72.4661 201.632 72.6536 201.542 73.0285L199.157 82.6128C199.142 82.6728 199.134 82.7328 199.134 82.7928C199.134 83.0478 199.329 83.1753 199.72 83.1753H204.13C204.625 83.1753 204.918 82.9878 205.008 82.6128L207.394 73.0285Z" fill="white"/>
<path d="M215.621 82.0504L214.901 84.8852L212.515 87H210.85L212.313 85.0202H210.647L211.39 82.0504H215.621Z" fill="white"/>
<path d="M241.786 70.6212L241.313 72.4661H233.054C232.514 72.4661 232.177 72.7361 232.042 73.276L231.659 74.8059C231.629 74.9259 231.614 75.0309 231.614 75.1209C231.614 75.4209 231.817 75.5709 232.222 75.5709H237.713C239.213 75.5709 239.963 76.2008 239.963 77.4607C239.963 77.7307 239.926 78.0307 239.851 78.3606L238.883 82.2304C238.418 84.0902 237.263 85.0202 235.417 85.0202H225.02L225.47 83.1753H233.797C234.307 83.1753 234.63 82.8903 234.765 82.3203L235.237 80.3855C235.267 80.2505 235.282 80.1305 235.282 80.0255C235.282 79.7255 235.087 79.5756 234.697 79.5756H229.139C227.683 79.5756 226.956 78.9531 226.956 77.7082C226.956 77.4232 227.001 77.1007 227.091 76.7408L227.901 73.456C228.366 71.5662 229.529 70.6212 231.389 70.6212H241.786Z" fill="white"/>
<path d="M245.18 82.0504L244.437 85.0202H240.206L240.949 82.0504H245.18Z" fill="white"/>
<path d="M262.876 85.0202H258.33L257.542 80.9255H250.993L248.203 85.0202H246.177L256.237 70.6212H259.927L262.876 85.0202ZM257.182 79.0806L256.079 73.636L252.321 79.0806H257.182Z" fill="white"/>
<path d="M269.596 82.0504L268.854 85.0202H264.623L265.365 82.0504H269.596Z" fill="white"/>
<path d="M295.019 70.6212L291.418 85.0202H287.502L287.75 84.0302H287.705C287.39 84.6902 286.955 85.0202 286.4 85.0202H281.314C279.978 85.0202 279.311 84.4427 279.311 83.2878C279.311 82.9878 279.356 82.6578 279.446 82.2978L280.729 77.1907C281.194 75.3609 282.266 74.4459 283.947 74.4459H288.808C289.138 74.4459 289.378 74.5434 289.528 74.7384C289.633 74.8884 289.715 75.1509 289.775 75.5259H289.865L291.103 70.6212H295.019ZM289.55 76.8308C289.58 76.7108 289.595 76.6058 289.595 76.5158C289.595 76.2458 289.408 76.1108 289.033 76.1108H285.612C285.147 76.1108 284.854 76.3508 284.734 76.8308L283.272 82.6353C283.242 82.7553 283.227 82.8603 283.227 82.9503C283.227 83.2203 283.414 83.3553 283.789 83.3553H287.3C287.705 83.3553 287.967 83.1153 288.087 82.6353L289.55 76.8308Z" fill="white"/>
<path d="M307.815 77.1682L306.937 80.7005H298.205L297.71 82.6353C297.68 82.7553 297.665 82.8528 297.665 82.9278C297.665 83.2128 297.838 83.3553 298.183 83.3553H306.037L305.632 85.0202H295.798C294.432 85.0202 293.75 84.4427 293.75 83.2878C293.75 83.0028 293.795 82.6728 293.885 82.2978L295.167 77.1682C295.617 75.3534 296.705 74.4459 298.431 74.4459H305.902C307.267 74.4459 307.95 75.0234 307.95 76.1783C307.95 76.4633 307.905 76.7933 307.815 77.1682ZM303.989 76.8308C304.019 76.7108 304.034 76.6133 304.034 76.5383C304.034 76.2533 303.862 76.1108 303.517 76.1108H300.006C299.571 76.1108 299.293 76.3508 299.173 76.8308L298.611 79.0356H303.426L303.989 76.8308Z" fill="white"/>
<path d="M330.976 70.6212L330.504 72.4661H323.887C323.392 72.4661 323.077 72.7211 322.942 73.231L320.647 82.4103C320.617 82.5303 320.602 82.6353 320.602 82.7253C320.602 83.0253 320.804 83.1753 321.209 83.1753H327.825L327.375 85.0202H318.599C317.083 85.0202 316.326 84.3977 316.326 83.1528C316.326 82.8528 316.371 82.5303 316.461 82.1854L318.644 73.456C319.109 71.5662 320.294 70.6212 322.199 70.6212H330.976Z" fill="white"/>
<path d="M334.252 82.0504L333.51 85.0202H329.279L330.022 82.0504H334.252Z" fill="white"/>
<path d="M353.838 70.6212L344.724 85.0202H340.876L338.873 70.6212H343.351L344.769 81.9154L351.723 70.6212H353.838Z" fill="white"/>
<path d="M355.021 82.0504L354.278 85.0202H350.047L350.79 82.0504H355.021Z" fill="white"/>
<path d="M28.8203 73L28.1875 75.4844H23.4531L20.3359 88H14.6172L17.7344 75.4844H13L13.6328 73H28.8203Z" fill="white"/>
<path d="M46.7502 73L44.1018 83.5469C43.6955 85.1563 43.1096 86.3047 42.3439 86.9922C41.5939 87.6641 40.508 88 39.0861 88H30.9768C28.9455 88 27.9299 87.0781 27.9299 85.2344C27.9299 84.7344 28.008 84.1719 28.1643 83.5469L30.8127 73H36.5314L33.7424 84.1563C33.6955 84.3438 33.6721 84.5156 33.6721 84.6719C33.6721 85.2344 34.0236 85.5156 34.7268 85.5156H39.7893C40.3049 85.5156 40.6721 85.4375 40.8908 85.2813C41.1252 85.125 41.3049 84.7969 41.4299 84.2969L44.2658 73H46.7502Z" fill="white"/>
<path d="M66.5558 73L57.0167 88H50.6183L48.9074 73H55.0011L56.3136 84.8125L63.8136 73H66.5558Z" fill="white"/>
<path d="M82.5067 73L81.8739 75.4844H73.9754C73.3192 75.4844 72.9364 75.6875 72.827 76.0938L72.5692 77.0547C72.5536 77.1328 72.5457 77.1953 72.5457 77.2422C72.5457 77.5078 72.8426 77.6406 73.4364 77.6406H77.702C79.7332 77.6406 80.7489 78.3203 80.7489 79.6797C80.7489 79.9453 80.7098 80.2266 80.6317 80.5234L79.6473 84.4609C79.0536 86.8203 77.6317 88 75.3817 88H64.3192L64.9286 85.5156H72.9442C73.5379 85.5156 73.8895 85.2969 73.9989 84.8594L74.2567 83.8281C74.2879 83.7344 74.3036 83.6484 74.3036 83.5703C74.3036 83.3047 74.0223 83.1719 73.4598 83.1719H68.5614C66.9364 83.1719 66.1239 82.5781 66.1239 81.3906C66.1239 81.0156 66.1864 80.5625 66.3114 80.0313L67.202 76.4453C67.452 75.4453 67.8973 74.6406 68.5379 74.0313C69.2411 73.3438 70.1004 73 71.1161 73H82.5067Z" fill="white"/>
<path d="M99.576 88H93.5057L92.8025 83.9688H86.2166L83.24 88H80.4744L91.3963 73H97.115L99.576 88ZM92.4275 81.4844L91.5603 76.4219L87.9978 81.4844H92.4275Z" fill="white"/>
<path fill-rule="evenodd" clip-rule="evenodd" d="M48.9127 10C49.5632 10 50.0406 10.6114 49.8828 11.2425L49.0605 14.5316L49.109 14.489C52.6499 11.3863 57.0603 10 61.9143 10H89.5268C93.1478 10 96.7968 10.8128 99.5546 13.3198C102.403 15.9091 103.413 19.4854 103.413 23.0781C103.413 25.0349 103.121 27.0802 102.61 29.1802L102.607 29.1917L97.39 50.2078C96.1544 55.1783 93.9905 59.4611 90.5362 62.5028C87.0093 65.6087 82.6147 67 77.7768 67H50.1643C46.5276 67 42.8665 66.1914 40.0966 63.6939C39.0148 62.7186 38.1955 61.6018 37.5945 60.3956L36.1328 66.2425C36.0215 66.6877 35.6215 67 35.1627 67H9.00049C8.35014 67 7.87282 66.389 8.03022 65.758L15.5622 35.5623C15.7196 34.9313 15.2423 34.3203 14.5919 34.3203H10.4774C9.82772 34.3203 9.35053 33.7104 9.50679 33.0798L13.4917 16.9977L38.1921 10.0375C38.2803 10.0126 38.3716 10 38.4633 10H48.9127ZM14.1208 62L22.2724 29.3203H15.5896L17.6458 21.0219L39.0161 15H43.7896L32.0396 62H14.1208ZM47.0799 27.9984L41.8658 49.0016C41.4252 50.813 41.2049 52.4531 41.2049 53.9219C41.2049 59.3073 44.1914 62 50.1643 62H77.7768C85.4632 62 90.3835 57.6672 92.5377 49.0016L97.7518 27.9984C98.1924 26.187 98.4127 24.5469 98.4127 23.0781C98.4127 17.6927 95.4507 15 89.5268 15H61.9143C54.1789 15 49.2341 19.3328 47.0799 27.9984Z" fill="white"/>
<path d="M43.7896 15L32.0396 62H14.1208L22.2724 29.3203H15.5896L17.6458 21.0219L39.0161 15H43.7896Z" fill="#FF6500"/>
<path d="M97.7518 27.9984L92.5377 49.0016C90.3835 57.6672 85.4632 62 77.7768 62H50.1643C44.1914 62 41.2049 59.3073 41.2049 53.9219C41.2049 52.4531 41.4252 50.813 41.8658 49.0016L47.0799 27.9984C49.2341 19.3328 54.1789 15 61.9143 15H89.5268C95.4507 15 98.4127 17.6927 98.4127 23.0781C98.4127 24.5469 98.1924 26.187 97.7518 27.9984ZM80.4205 25.6484C80.5184 25.2568 80.5674 24.9141 80.5674 24.6203C80.5674 23.3964 79.6372 22.7844 77.7768 22.7844H69.6986C67.4466 22.7844 66.0757 23.7391 65.5862 25.6484L59.1971 51.3516C59.0992 51.7432 59.0502 52.0859 59.0502 52.3797C59.0502 53.6036 59.9804 54.2156 61.8408 54.2156H69.919C72.171 54.2156 73.5419 53.2609 74.0315 51.3516L80.4205 25.6484Z" fill="#FF6500"/>
<path d="M69.919 54.2156C72.171 54.2156 73.5419 53.2609 74.0315 51.3516L80.4205 25.6484C80.5184 25.2568 80.5674 24.9141 80.5674 24.6203C80.5674 23.3964 79.6372 22.7844 77.7768 22.7844H69.6986C67.4466 22.7844 66.0757 23.7391 65.5862 25.6484L59.1971 51.3516C59.0992 51.7432 59.0502 52.0859 59.0502 52.3797C59.0502 53.6036 59.9804 54.2156 61.8408 54.2156H69.919Z" fill="white"/>
<rect x="8" y="91" width="96" height="5" fill="white"/>
</svg>
